<svg xmlns="http://www.w3.org/2000/svg" version="1.1" xmlns:xlink="http://www.w3.org/1999/xlink" xmlns:svgjs="http://svgjs.com/svgjs" width="512" height="512" x="0" y="0" viewBox="0 0 512 512" style="enable-background:new 0 0 512 512" xml:space="preserve" class=""><g><g xmlns="http://www.w3.org/2000/svg"><g><path d="m256 433.25c-4.123 0-7.897-2.634-9.35-6.483-1.494-3.957-.266-8.567 3.006-11.25 3.232-2.65 7.894-2.99 11.481-.847 3.588 2.144 5.476 6.435 4.663 10.529-.916 4.613-5.093 8.051-9.8 8.051z" fill="#000000" data-original="#000000" class=""></path><path d="m510.351 250.5c-1.15-1.747-28.698-43.279-73.557-85.412-13.665-12.834-27.473-24.332-41.322-34.419l46.27-46.269c3.905-3.905 3.905-10.237 0-14.142s-10.238-3.905-14.142 0l-48.9 48.9c-7.42-4.782-14.84-9.152-22.244-13.097-34.011-18.12-67.809-27.307-100.456-27.307s-66.445 9.187-100.456 27.307c-26.818 14.287-53.848 34.146-80.338 59.027-44.86 42.133-72.407 83.665-73.558 85.412-2.198 3.337-2.198 7.663 0 11 .897 1.363 22.391 33.795 58.295 70.457 15.232 15.554 34.457 33.187 56.638 49.321l-46.323 46.322c-3.905 3.905-3.905 10.237 0 14.142 1.953 1.953 4.512 2.929 7.071 2.929s5.119-.976 7.071-2.929l48.957-48.957c22.327 14.391 47.079 26.651 73.375 33.738.463.125.926.248 1.389.369.848.222 1.698.328 2.536.328 4.439 0 8.493-2.978 9.668-7.474 1.397-5.343-1.802-10.807-7.146-12.204l-1.243-.331c-22.727-6.124-44.336-16.54-64.104-28.902l23.339-23.339c22.82 19.588 52.467 31.437 84.829 31.437 71.907 0 130.408-58.501 130.408-130.408 0-32.362-11.849-62.008-31.437-84.829l26.132-26.132c15.621 11.132 29.667 23.066 41.688 34.336 33.948 31.827 58.102 64.051 67.044 76.626-7.57 10.65-26.031 35.375-52.061 61.955-31.434 32.098-80.688 73.597-136.819 89.013-.597.164-1.195.325-1.793.483-5.34 1.411-8.525 6.883-7.114 12.223 1.411 5.339 6.88 8.523 12.223 7.114.658-.174 1.316-.352 1.977-.533 60.572-16.636 112.887-60.629 146.108-94.605 35.727-36.539 57.103-68.796 57.996-70.151 2.197-3.336 2.197-7.662-.001-10.999zm-217.257 5.5c0 20.454-16.64 37.094-37.094 37.094-6.602 0-12.806-1.734-18.182-4.77l50.506-50.506c3.036 5.376 4.77 11.58 4.77 18.182zm-74.188 0c0-20.454 16.64-37.094 37.094-37.094 6.602 0 12.806 1.734 18.182 4.77l-50.506 50.506c-3.036-5.376-4.77-11.58-4.77-18.182zm69.756-46.804c-9.261-6.482-20.525-10.289-32.662-10.289-31.481 0-57.094 25.612-57.094 57.094 0 12.137 3.807 23.401 10.289 32.662l-37.982 37.982c-15.99-19.158-25.621-43.798-25.621-70.644 0-60.879 49.529-110.408 110.408-110.408 26.847 0 51.486 9.632 70.644 25.621zm77.746 46.804c0 60.879-49.529 110.408-110.408 110.408-26.847 0-51.486-9.632-70.644-25.621l37.982-37.982c9.261 6.482 20.525 10.289 32.662 10.289 31.481 0 57.094-25.612 57.094-57.094 0-12.137-3.807-23.401-10.289-32.662l37.982-37.982c15.989 19.158 25.621 43.797 25.621 70.644zm-25.579-98.971c-22.82-19.588-52.467-31.437-84.829-31.437-71.907 0-130.408 58.5-130.408 130.408 0 32.362 11.849 62.008 31.437 84.829l-26.134 26.134c-22.082-15.774-41.278-33.315-56.381-48.713-26.184-26.694-44.753-51.563-52.349-62.249 8.944-12.579 33.098-44.802 67.044-76.626 39.229-36.779 100.011-80.621 166.791-80.621 39.156 0 76.25 15.073 108.146 34.957z" fill="#000000" data-original="#000000" class=""></path></g></g></g></svg>