<svg xmlns="http://www.w3.org/2000/svg" version="1.1" xmlns:xlink="http://www.w3.org/1999/xlink" xmlns:svgjs="http://svgjs.com/svgjs" width="512" height="512" x="0" y="0" viewBox="0 0 512 512" style="enable-background:new 0 0 512 512" xml:space="preserve" class=""><g><g xmlns="http://www.w3.org/2000/svg"><g><path d="m256 433.248c-4.177 0-8.007-2.711-9.415-6.636-1.388-3.866-.19-8.342 2.946-10.996 3.282-2.777 8.092-3.122 11.746-.864 3.602 2.225 5.415 6.648 4.453 10.765-1.044 4.468-5.139 7.731-9.73 7.731z" fill="#000000" data-original="#000000" class=""></path><path d="m256 313.092c-31.481 0-57.094-25.612-57.094-57.094s25.612-57.094 57.094-57.094 57.094 25.612 57.094 57.094-25.612 57.094-57.094 57.094zm0-94.188c-20.453 0-37.094 16.64-37.094 37.094s16.641 37.094 37.094 37.094 37.094-16.64 37.094-37.094-16.641-37.094-37.094-37.094z" fill="#000000" data-original="#000000" class=""></path><path d="m256 386.406c-71.907 0-130.407-58.501-130.407-130.408s58.5-130.408 130.407-130.408 130.407 58.501 130.407 130.408-58.5 130.408-130.407 130.408zm0-240.816c-60.879 0-110.407 49.529-110.407 110.408s49.528 110.408 110.407 110.408 110.407-49.529 110.407-110.408-49.528-110.408-110.407-110.408z" fill="#000000" data-original="#000000" class=""></path><path d="m210.657 427.217c-.838 0-1.689-.106-2.538-.328-.462-.121-.924-.244-1.387-.368-60.83-16.392-113.4-60.474-146.789-94.566-35.903-36.661-57.396-69.094-58.294-70.457-2.198-3.337-2.198-7.663 0-11 1.15-1.747 28.697-43.279 73.557-85.412 26.491-24.88 53.52-44.74 80.339-59.027 34.011-18.12 67.81-27.307 100.456-27.307s66.445 9.187 100.456 27.307c26.818 14.287 53.848 34.146 80.339 59.027 44.859 42.133 72.406 83.665 73.557 85.412 2.198 3.337 2.198 7.663 0 11-.893 1.355-22.269 33.612-57.995 70.151-33.222 33.976-85.536 77.969-146.108 94.605-.662.181-1.32.359-1.979.533-5.343 1.408-10.813-1.776-12.222-7.117-1.409-5.34 1.776-10.812 7.116-12.221.599-.158 1.196-.319 1.793-.482 56.131-15.416 105.385-56.914 136.818-89.013 26.03-26.58 44.491-51.305 52.061-61.955-8.942-12.575-33.096-44.799-67.044-76.627-39.231-36.778-100.012-80.62-166.793-80.62-66.909 0-127.802 44-167.102 80.912-33.853 31.795-57.836 63.807-66.735 76.332 7.595 10.686 26.166 35.556 52.352 62.252 31.586 32.202 81.067 73.775 137.422 88.961l1.245.331c5.344 1.398 8.541 6.863 7.143 12.206-1.177 4.495-5.231 7.471-9.668 7.471z" fill="#000000" data-original="#000000" class=""></path></g></g></g></svg>