<svg width="46" height="48" viewBox="0 0 46 48" fill="none" xmlns="http://www.w3.org/2000/svg">
<path d="M10.1914 39.3208C9.88073 39.7259 9.45007 40.0327 8.89946 40.2411C8.34885 40.4496 7.72351 40.5538 7.02344 40.5538C6.30371 40.5538 5.66657 40.3906 5.11202 40.0641C4.55747 39.7377 4.12878 39.2716 3.82594 38.666C3.52704 38.0564 3.37169 37.3465 3.35989 36.5363V35.8637C3.35989 34.5658 3.67059 33.5531 4.292 32.8255C4.91341 32.094 5.78062 31.7282 6.89365 31.7282C7.84936 31.7282 8.60842 31.9642 9.17083 32.4362C9.73325 32.9081 10.0715 33.5885 10.1855 34.4774H8.72248C8.55729 33.443 7.95752 32.9258 6.92315 32.9258C6.25455 32.9258 5.74523 33.1677 5.39519 33.6514C5.04909 34.1313 4.87014 34.8372 4.85834 35.7693V36.4301C4.85834 37.3583 5.05303 38.0799 5.44239 38.5952C5.83569 39.1065 6.3804 39.3621 7.07653 39.3621C7.83953 39.3621 8.38228 39.189 8.70478 38.8429V37.1616H6.93495V36.0289H10.1914V39.3208ZM15.0349 35.3623C14.8461 35.3308 14.6514 35.3151 14.4508 35.3151C13.794 35.3151 13.3516 35.5668 13.1235 36.0702V40.4358H11.6899V34.0526H13.0586L13.094 34.7664C13.4401 34.2119 13.9199 33.9346 14.5334 33.9346C14.7379 33.9346 14.9071 33.9621 15.0408 34.0172L15.0349 35.3623ZM19.8075 39.8105C19.3867 40.306 18.7889 40.5538 18.0141 40.5538C17.3219 40.5538 16.7968 40.3512 16.4389 39.9461C16.085 39.541 15.908 38.955 15.908 38.1881V34.0526H17.3416V38.1704C17.3416 38.9806 17.6778 39.3857 18.3504 39.3857C19.0465 39.3857 19.5165 39.1359 19.7603 38.6365V34.0526H21.1939V40.4358H19.8429L19.8075 39.8105ZM28.2437 37.3091C28.2437 38.2963 28.0195 39.0848 27.5712 39.6748C27.1228 40.2608 26.5211 40.5538 25.766 40.5538C25.0659 40.5538 24.5054 40.3237 24.0846 39.8635V42.89H22.6511V34.0526H23.9725L24.0315 34.7015C24.4523 34.1903 25.0246 33.9346 25.7483 33.9346C26.527 33.9346 27.1366 34.2256 27.5771 34.8077C28.0215 35.3859 28.2437 36.1902 28.2437 37.2206V37.3091ZM26.8161 37.1852C26.8161 36.5481 26.6882 36.0427 26.4326 35.669C26.1809 35.2954 25.8191 35.1086 25.3471 35.1086C24.7611 35.1086 24.3403 35.3505 24.0846 35.8342V38.666C24.3442 39.1615 24.769 39.4093 25.3589 39.4093C25.8151 39.4093 26.1711 39.2264 26.4267 38.8606C26.6863 38.4909 26.8161 37.9325 26.8161 37.1852ZM35.0517 37.3091C35.0517 38.2963 34.8275 39.0848 34.3791 39.6748C33.9308 40.2608 33.329 40.5538 32.5739 40.5538C31.8738 40.5538 31.3134 40.3237 30.8926 39.8635V42.89H29.459V34.0526H30.7805L30.8395 34.7015C31.2603 34.1903 31.8325 33.9346 32.5562 33.9346C33.3349 33.9346 33.9445 34.2256 34.385 34.8077C34.8295 35.3859 35.0517 36.1902 35.0517 37.2206V37.3091ZM33.624 37.1852C33.624 36.5481 33.4962 36.0427 33.2405 35.669C32.9888 35.2954 32.627 35.1086 32.155 35.1086C31.569 35.1086 31.1482 35.3505 30.8926 35.8342V38.666C31.1521 39.1615 31.5769 39.4093 32.1668 39.4093C32.6231 39.4093 32.979 39.2264 33.2346 38.8606C33.4942 38.4909 33.624 37.9325 33.624 37.1852ZM36.0015 37.1852C36.0015 36.5599 36.1254 35.9974 36.3731 35.498C36.6209 34.9945 36.969 34.6091 37.4173 34.3417C37.8657 34.0703 38.3809 33.9346 38.963 33.9346C39.8243 33.9346 40.5224 34.2119 41.0573 34.7664C41.5961 35.321 41.8872 36.0564 41.9304 36.9728L41.9363 37.3091C41.9363 37.9384 41.8144 38.5008 41.5706 38.9963C41.3306 39.4919 40.9845 39.8753 40.5323 40.1467C40.0839 40.4181 39.5647 40.5538 38.9748 40.5538C38.0742 40.5538 37.3525 40.2549 36.8097 39.6571C36.2709 39.0553 36.0015 38.255 36.0015 37.256V37.1852ZM37.435 37.3091C37.435 37.9659 37.5707 38.4811 37.8421 38.8547C38.1135 39.2244 38.491 39.4093 38.9748 39.4093C39.4586 39.4093 39.8342 39.2205 40.1016 38.8429C40.373 38.4654 40.5087 37.9128 40.5087 37.1852C40.5087 36.5402 40.369 36.0289 40.0898 35.6513C39.8145 35.2738 39.4389 35.085 38.963 35.085C38.495 35.085 38.1233 35.2718 37.848 35.6454C37.5727 36.0151 37.435 36.5697 37.435 37.3091Z" fill="black"/>
<path d="M33.8855 12.3148C35.704 12.3148 37.1831 10.8281 37.1831 9.00028C37.1831 7.17249 35.704 5.68481 33.8855 5.68481C32.067 5.68481 30.5879 7.17152 30.5879 8.99931C30.5879 10.8271 32.067 12.3148 33.8855 12.3148ZM33.8855 6.64833C35.1758 6.64833 36.2245 7.70338 36.2245 8.99931C36.2245 10.2962 35.1748 11.3503 33.8855 11.3503C32.5962 11.3503 31.5465 10.2952 31.5465 8.99931C31.5465 7.70338 32.5962 6.64833 33.8855 6.64833Z" fill="black"/>
<path d="M31.5282 3.3145C31.5282 1.48671 30.0491 0 28.2296 0C26.4102 0 24.932 1.48671 24.932 3.3145C24.932 5.14229 26.4111 6.629 28.2296 6.629C30.0481 6.629 31.5282 5.14326 31.5282 3.3145ZM28.2296 5.66645C26.9393 5.66645 25.8906 4.61139 25.8906 3.31546C25.8906 2.01857 26.9403 0.964481 28.2296 0.964481C29.519 0.964481 30.5696 2.01953 30.5696 3.31546C30.5696 4.61139 29.5199 5.66645 28.2296 5.66645Z" fill="black"/>
<path d="M20.1985 3.3145C20.1985 1.48671 18.7194 0 16.9009 0C15.0824 0 13.6033 1.48671 13.6033 3.3145C13.6033 5.14229 15.0824 6.629 16.9009 6.629C18.7194 6.629 20.1985 5.14326 20.1985 3.3145ZM16.9009 5.66645C15.6106 5.66645 14.5619 4.61139 14.5619 3.31546C14.5619 2.01857 15.6116 0.964481 16.9009 0.964481C18.1902 0.964481 19.2399 2.01953 19.2399 3.31546C19.2399 4.61139 18.1902 5.66645 16.9009 5.66645Z" fill="black"/>
<path d="M33.8853 13.1077C31.1811 13.1077 28.9811 15.3189 28.9811 18.037V25.4359H38.7886V18.037C38.7896 15.3189 36.5896 13.1077 33.8853 13.1077ZM37.831 24.4724H29.9406V18.037C29.9406 15.8508 31.7102 14.0712 33.8863 14.0712C36.0614 14.0712 37.8319 15.8498 37.8319 18.037V24.4724H37.831Z" fill="black"/>
<path d="M22.5739 12.3148C24.3924 12.3148 25.8715 10.8281 25.8715 9.00028C25.8715 7.17249 24.3924 5.68481 22.5739 5.68481C20.7554 5.68481 19.2762 7.17152 19.2762 8.99931C19.2762 10.8271 20.7554 12.3148 22.5739 12.3148ZM22.5739 6.64833C23.8642 6.64833 24.9129 7.70338 24.9129 8.99931C24.9129 10.2962 23.8632 11.3503 22.5739 11.3503C21.2845 11.3503 20.2349 10.2952 20.2349 8.99931C20.2349 7.70338 21.2845 6.64833 22.5739 6.64833Z" fill="black"/>
<path d="M22.5737 13.1077C19.8694 13.1077 17.6694 15.3189 17.6694 18.037V25.4359H27.477V18.037C27.4779 15.3189 25.2779 13.1077 22.5737 13.1077ZM26.5193 24.4724H18.629V18.037C18.629 15.8508 20.3986 14.0712 22.5746 14.0712C24.7497 14.0712 26.5203 15.8498 26.5203 18.037V24.4724H26.5193Z" fill="black"/>
<path d="M11.2633 12.3148C13.0818 12.3148 14.5619 10.8281 14.5619 9.00028C14.5619 7.17249 13.0818 5.68481 11.2633 5.68481C9.44484 5.68481 7.9657 7.17152 7.9657 8.99931C7.9657 10.8271 9.44484 12.3148 11.2633 12.3148ZM11.2633 6.64833C12.5536 6.64833 13.6033 7.70338 13.6033 8.99931C13.6033 10.2962 12.5536 11.3503 11.2633 11.3503C9.97303 11.3503 8.92431 10.2952 8.92431 8.99931C8.92335 7.70338 9.97303 6.64833 11.2633 6.64833Z" fill="black"/>
<path d="M11.2631 13.1077C8.5589 13.1077 6.35889 15.3189 6.35889 18.0361V25.4349H16.1664V18.0361C16.1664 15.3189 13.9664 13.1077 11.2631 13.1077ZM15.2078 24.4723H7.3175V18.037C7.3175 15.8508 9.08709 14.0712 11.2631 14.0712C13.4382 14.0712 15.2088 15.8498 15.2088 18.037V24.4723H15.2078Z" fill="black"/>
</svg>
