<svg height="110" width="505" xmlns="http://www.w3.org/2000/svg"><path d="m89.73 101.6v1.31h-40v-1.31l8.29-5.96v-43.35c0-9.6-3.2-14.4-11.06-14.4-5.24 0-9.75 2.33-13.38 6.4v51.35l8.29 5.96v1.31h-40v-1.31l8.44-5.96v-87.14l-9.16-6.11v-1.31h32.44v38.69c5.24-6.69 12.95-12.22 24.87-12.22 14.84 0 22.84 8.44 22.84 23.57v44.51z"/><path d="m163.34 80.36c-4.95 13.67-15.42 24.29-34.91 24.29-22.55 0-38.26-15.13-38.26-37.82 0-25.6 16.29-39.28 38.69-39.28 20.51 0 34.33 11.06 34.33 32.88v4.22h-48.29c.73 19.64 9.46 29.67 21.97 29.67 12.36 0 18.91-6.84 23.57-15.27zm-48.44-19.05h25.6v-3.05c-.15-19.49-3.64-27.35-11.49-27.35-8-.01-13.82 8.72-14.11 30.4zm131.64 40.29v1.31h-26.91l-4.07-11.49c-5.53 8.44-13.24 13.24-22.69 13.24-11.35 0-23.57-4.8-23.57-20.8 0-12.07 10.33-18.33 21.97-21.24 8.44-2.04 17.02-4.22 23.71-6.26v-12.36c0-8.73-3.06-13.09-9.89-13.09-1.6 0-3.35.15-5.53.73l-21.67 24.73h-1.31l-1.02-25.46c11.93-2.18 22.69-3.35 33.31-3.35 20.51 0 29.38 9.16 29.38 21.24v46.55zm-31.57-13.82v-28.51l-10.33 3.64c-8.15 3.35-12.36 9.46-12.36 17.89 0 8.87 4.8 14.26 11.2 14.26 4.51-.01 7.86-2.33 11.49-7.28z" fill-rule="evenodd"/><path d="m310.54 29.3-.87 25.17h-1.31l-15.71-17.75c-4.51 2.04-7.71 5.53-10.33 10.47v48.44l12.36 5.96v1.31h-43.93v-1.31l8.29-5.96v-58.91l-9.02-6.11v-1.31h27.64l4.51 12.66c4.07-7.86 10.18-13.96 18.04-13.96 3.64-.01 6.55.29 10.33 1.3zm37.89 3.35v51.35c0 7.13 2.62 11.2 7.42 11.2 3.78 0 6.84-2.18 9.45-6.98l2.91 1.45c-4.36 9.46-10.91 14.98-22.84 14.98-13.82 0-20.22-7.71-20.22-18.47v-53.53h-10.18v-3.06l8.87-2.76 23.42-18.62h1.16v21.09h19.78v3.35z"/><path d="m456.3 101.6v1.31h-40v-1.31l8.29-5.96v-43.35c0-9.6-3.2-14.4-11.06-14.4-5.24 0-9.75 2.33-13.38 6.4v51.35l8.29 5.96v1.31h-40v-1.31l8.44-5.96v-87.14l-9.16-6.11v-1.31h32.44v38.69c5.24-6.69 12.95-12.22 24.87-12.22 14.84 0 22.84 8.44 22.84 23.57v44.51z"/><path d="m476.21 14.98c0 7.86-6.17 14.03-14.2 14.03-7.94 0-14.28-6.17-14.28-14.03 0-7.69 6.34-13.86 14.28-13.86 8.03 0 14.2 6.17 14.2 13.86zm-24.93 0c0 6.17 4.56 11.07 10.82 11.07 6.08 0 10.56-4.9 10.56-10.99 0-6.17-4.48-11.15-10.65-11.15s-10.73 4.98-10.73 11.07zm5.32 7.26v-13.86c1.27-.25 3.04-.42 5.32-.42 2.62 0 3.8.42 4.82 1.01.76.59 1.35 1.69 1.35 3.04 0 1.52-1.18 2.7-2.87 3.21v.17c1.35.51 2.11 1.52 2.54 3.38.42 2.11.68 2.96 1.01 3.46h-3.46c-.42-.51-.68-1.78-1.1-3.38-.25-1.52-1.1-2.2-2.87-2.2h-1.52v5.59zm4.82-7.85c1.77 0 3.21-.59 3.21-2.03 0-1.27-.93-2.11-2.96-2.11-.84 0-1.44.08-1.77.17v3.97z" fill-rule="evenodd"/></svg>