<svg xmlns="http://www.w3.org/2000/svg" viewBox="0 0 255 255" width="255" height="255">
	<style>
		tspan { white-space:pre }
		.shp0 { fill: #000000 } 
	</style>
	<g>
		<g>
			<g>
				<g>
					<g>
						<path class="shp0" d="M152.02 250.98C151.55 250.98 151.07 250.9 150.6 250.74C148.39 249.96 147.23 247.53 148.02 245.32C148.42 244.19 148.84 243.03 149.26 241.86C154.74 226.71 161.55 207.86 152.79 181.08C141.47 146.46 140.01 142.01 136.48 106.91C134.44 86.65 119.05 57.28 99.39 45.86C97.36 44.68 96.67 42.09 97.85 40.06C99.03 38.03 101.62 37.34 103.65 38.52C126.27 51.65 142.68 83.8 144.92 106.06C148.36 140.24 149.79 144.59 160.86 178.44C170.53 207.99 162.85 229.23 157.24 244.74C156.82 245.9 156.41 247.04 156.01 248.15C155.41 249.9 153.77 250.98 152.02 250.98Z"/>
					</g>
					<g>
						<path class="shp0" d="M114.31 159.34C111.19 159.34 108.34 159.33 107.63 159.28C104.88 159.09 102.37 157.84 100.57 155.76C98.76 153.68 97.87 151.02 98.07 148.27C98.2 146.38 98.85 144.56 99.94 143.02C99.97 142.98 100 142.94 100.03 142.9L101.1 141.5C101.35 141.18 101.49 140.82 101.52 140.48C101.58 139.64 101.12 138.89 100.46 138.72L99.76 138.54C94.15 137.35 90.5 132.88 90.86 127.63C91.08 124.44 92.73 121.59 95.38 119.8C95.44 119.76 95.5 119.72 95.56 119.68L97.09 118.76C97.69 118.41 98.03 117.87 98.07 117.26C98.14 116.26 97.38 115.38 96.38 115.31C96.26 115.3 95.92 115.35 95.68 115.38L94 115.67C92.75 115.89 91.2 116.16 89.47 116.03C81.87 115.5 75.48 109.38 74.29 101.48L73.91 98.96C73.45 95.74 70.51 92.39 66.83 92.39C66.79 92.39 66.76 92.39 66.72 92.39L66.3 92.4C66.26 92.4 66.22 92.4 66.18 92.4L65.97 92.4C65.11 92.4 64.29 92.4 63.7 92.36C61.36 92.2 59.6 90.17 59.76 87.83C59.92 85.49 61.94 83.73 64.29 83.89C64.61 83.91 65.54 83.91 65.94 83.91L66.51 83.9C74.27 83.73 81.18 89.83 82.31 97.73L82.69 100.21C83.2 103.6 86.1 107.28 90.07 107.56C90.77 107.61 91.64 107.46 92.56 107.3C92.82 107.26 93.07 107.21 93.33 107.17L94.3 107C94.35 106.99 94.39 106.98 94.44 106.98C95.04 106.9 95.96 106.77 96.98 106.84C99.73 107.03 102.24 108.28 104.04 110.36C105.85 112.44 106.74 115.1 106.54 117.85C106.3 121.27 104.39 124.34 101.41 126.06L100.07 126.87C99.64 127.19 99.37 127.68 99.33 128.21C99.24 129.43 100.7 130.06 101.57 130.23C101.64 130.25 101.72 130.26 101.79 130.28L102.56 130.48C107.19 131.65 110.32 136.1 109.98 141.06C109.84 143.08 109.1 145.01 107.83 146.65L106.83 147.96C106.65 148.22 106.55 148.52 106.53 148.84C106.48 149.5 106.79 149.95 106.97 150.17C107.15 150.39 107.56 150.75 108.22 150.79C109.21 150.85 117.45 150.84 122.99 150.81C123 150.81 123.01 150.81 123.01 150.81C125.34 150.81 127.24 152.7 127.25 155.03C127.26 157.37 125.37 159.28 123.03 159.3C121.35 159.33 117.67 159.34 114.31 159.34Z"/>
					</g>
					<g>
						<path fill-rule="evenodd" class="shp0" d="M130.53 223.04C129.36 223.04 128.2 222.56 127.36 221.62L88.85 178.35L78.87 178.35C64.42 178.35 62.86 169.41 62.86 165.57L62.86 161.98C62.86 161.31 62.62 160.69 62.14 160.06C62.1 160.01 62.06 159.95 62.02 159.9L61.92 159.76C60.22 157.44 59.39 155.13 59.39 152.69C59.39 150.84 59.85 149.03 60.7 147.43C59.46 143.92 58.72 141.52 58.3 139.83L54.7 138.47C49.54 136.64 46.92 133.62 46.92 129.49L46.92 129.37C46.92 128.81 46.91 127.96 47.23 126.97L63 76.35C71.19 49.97 97.94 32.24 129.57 32.24C150.37 32.24 167.84 39.38 180.09 52.88C193.84 68.04 200.81 90.57 200.81 119.86C200.81 159.91 216.16 182.2 229.04 193.83C230.78 195.4 230.91 198.08 229.34 199.82C227.77 201.56 225.09 201.7 223.35 200.12C209.19 187.33 192.32 163.02 192.32 119.85C192.32 92.74 186.09 72.12 173.8 58.58C163.2 46.9 147.91 40.72 129.57 40.72C101.68 40.72 78.19 56.05 71.11 78.87L55.41 129.26C55.41 129.28 55.41 129.31 55.41 129.33L55.41 129.41C55.57 129.56 56.09 129.95 57.56 130.47C57.59 130.48 57.62 130.49 57.65 130.5L63.62 132.76C64.68 133.16 65.53 133.96 65.99 134.99C66.27 135.62 68.09 142.96 69.4 146.57C69.94 148.05 69.61 149.7 68.56 150.87C68.24 151.22 67.86 151.82 67.86 152.68C67.86 153.04 67.95 153.65 68.76 154.74C68.78 154.76 68.8 154.79 68.81 154.81L68.88 154.91C70.48 157 71.33 159.44 71.33 161.96L71.33 165.55C71.33 167.05 71.33 169.85 78.85 169.85L90.74 169.85C91.95 169.85 93.1 170.37 93.91 171.27L133.69 215.96C135.25 217.71 135.09 220.39 133.34 221.95C132.54 222.69 131.53 223.04 130.53 223.04ZM66.08 138.25L66.08 138.25ZM66.08 138.24L66.08 138.24ZM55.33 129.49L55.32 129.52C55.32 129.51 55.33 129.5 55.33 129.49Z"/>
					</g>
					<g>
						<path class="shp0" d="M63.76 235.28C61.98 235.28 60.32 234.15 59.73 232.36C59 230.14 60.2 227.74 62.42 227.01L62.42 227.01C62.69 226.92 89.21 217.73 99.93 187.67C100.72 185.46 103.15 184.31 105.35 185.1C107.56 185.89 108.71 188.31 107.92 190.52C95.76 224.62 66.32 234.66 65.08 235.07C64.64 235.21 64.2 235.28 63.76 235.28Z"/>
					</g>
					<g>
						<path class="shp0" d="M195.34 232.52C193.17 232.52 191.32 230.86 191.12 228.65C189.66 212.37 183.84 194.2 177.68 174.96C165.26 136.21 151.19 92.29 170.71 52.21C171.74 50.1 174.28 49.23 176.38 50.25C178.49 51.28 179.36 53.82 178.34 55.92C160.31 92.94 173.25 133.31 185.76 172.36C192.07 192.06 198.04 210.67 199.57 227.88C199.78 230.21 198.06 232.28 195.72 232.48C195.59 232.52 195.46 232.52 195.34 232.52Z"/>
					</g>
					<g>
						<path class="shp0" d="M129.22 75.82C128.58 75.82 127.93 75.67 127.32 75.37C125.23 74.32 124.38 71.77 125.43 69.67C127.8 64.95 135.65 56.52 148.41 58.41C150.73 58.75 152.33 60.91 151.99 63.23C151.65 65.55 149.48 67.15 147.17 66.81C137.23 65.33 133.06 73.39 133.02 73.48C132.27 74.96 130.78 75.82 129.22 75.82Z"/>
					</g>
					<g>
						<path class="shp0" d="M66 110.02C64.37 110.02 62.81 109.07 62.11 107.48C61.17 105.33 62.14 102.83 64.29 101.89C66.76 100.8 74.58 98.49 81.03 100.79C83.24 101.58 84.39 104.01 83.6 106.21C82.81 108.42 80.38 109.57 78.18 108.78C74.87 107.6 69.73 108.77 67.71 109.66C67.15 109.9 66.57 110.02 66 110.02Z"/>
					</g>
					<g>
						<path class="shp0" d="M68 124.31C65.68 124.2 63.87 122.24 63.96 119.91C64.05 117.57 66.02 115.74 68.36 115.83L75.57 116.1C75.58 116.1 75.6 116.1 75.61 116.1C77.93 116.21 79.74 118.17 79.65 120.5C79.56 122.84 77.59 124.67 75.25 124.58L68.04 124.31C68.03 124.31 68.01 124.31 68 124.31Z"/>
					</g>
					<g>
						<path class="shp0" d="M122.15 252.89C121.42 252.89 120.67 252.7 119.99 252.3C117.98 251.11 117.32 248.51 118.51 246.5C125.11 235.39 129.49 208.22 129.49 195.13C129.49 183.15 127.33 173.02 122.89 164.16L121.81 162C115.61 150.56 112.34 137.6 112.34 124.51L112.34 123.91C112.34 98.32 98.41 74.72 75.99 62.33C73.94 61.2 73.2 58.63 74.33 56.58C75.46 54.53 78.04 53.79 80.08 54.92C105.2 68.8 120.8 95.24 120.8 123.91L120.8 124.51C120.8 136.22 123.73 147.8 129.28 158.02C129.3 158.06 129.33 158.11 129.35 158.15L130.46 160.37C135.5 170.43 137.95 181.8 137.95 195.12C137.95 209.82 133.32 238.12 125.78 250.81C125 252.15 123.59 252.89 122.15 252.89Z"/>
					</g>
				</g>
				<g>
					<path fill-rule="evenodd" class="shp0" d="M127.78 254.11C58.08 254.11 1.37 197.4 1.37 127.7C1.37 58 58.08 1.3 127.78 1.3C197.48 1.3 254.19 58.01 254.19 127.71C254.19 197.41 197.48 254.11 127.78 254.11ZM127.78 9.78C62.8 9.78 9.93 62.68 9.93 127.7C9.93 192.72 62.8 245.62 127.78 245.62C192.76 245.62 245.63 192.72 245.63 127.7C245.63 62.68 192.76 9.78 127.78 9.78Z"/>
				</g>
			</g>
		</g>
		<g>
			<g>
				<path class="shp0" d="M51.11 185.61L54.85 183.04L62.92 192.28L62.81 192.38C62.08 192.03 61.55 191.88 61.23 191.92C60.91 191.96 60.42 192.26 59.76 192.83L52.08 199.54C51.43 200.11 51.06 200.55 50.97 200.86C50.89 201.17 50.97 201.72 51.21 202.49L51.1 202.59L43.54 193.93L46.65 190.69L46.76 190.81C46.21 191.73 45.91 192.73 45.85 193.81C45.79 194.89 46.14 195.86 46.91 196.73L48.07 198.06L52.82 193.92L51.64 192.56C50.83 191.63 49.77 191.28 48.44 191.51L48.37 191.43L51.6 188.61L51.67 188.69C51.44 189.27 51.35 189.88 51.42 190.5C51.49 191.12 51.71 191.67 52.12 192.12L53.34 193.45L58.07 189.32C58.3 189.12 58.36 188.8 58.23 188.37C58.11 187.94 57.82 187.46 57.36 186.94L56.92 186.43C56.34 185.76 55.51 185.39 54.45 185.31C53.39 185.24 52.32 185.36 51.23 185.69L51.11 185.61Z"/>
				<path class="shp0" d="M50.96 176.72C51.8 178 52.38 179.67 52.69 181.74L48.99 184.5L48.91 184.38C49.42 183.57 49.84 182.77 50.18 181.96C50.52 181.15 50.73 180.28 50.81 179.36C50.89 178.44 50.73 177.67 50.33 177.06C49.98 176.52 49.5 176.18 48.91 176.04C48.32 175.9 47.71 176.03 47.09 176.43C46.43 176.86 46.04 177.41 45.92 178.08C45.79 178.75 45.77 179.84 45.83 181.35C45.89 182.9 45.87 183.97 45.77 184.59C45.54 185.9 44.89 186.91 43.83 187.61C42.71 188.34 41.56 188.53 40.4 188.17C39.23 187.82 38.27 187.04 37.49 185.86C36.82 184.83 36.27 183.5 35.85 181.86L39.36 179.04L39.45 179.17C38.72 180.38 38.19 181.58 37.89 182.77C37.58 183.97 37.66 184.93 38.14 185.66C38.44 186.13 38.86 186.43 39.4 186.57C39.94 186.7 40.49 186.59 41.06 186.21C41.61 185.85 41.93 185.37 42.05 184.76C42.16 184.15 42.17 183.09 42.09 181.6C42.05 180.97 42.02 180.56 42.02 180.35C42.02 180.15 42.01 179.79 42.02 179.29C42.03 178.79 42.05 178.43 42.09 178.22C42.13 178.01 42.2 177.72 42.29 177.33C42.38 176.94 42.51 176.65 42.67 176.43C42.83 176.21 43.03 175.96 43.28 175.7C43.53 175.44 43.82 175.19 44.15 174.98C44.84 174.53 45.53 174.26 46.23 174.17C46.93 174.08 47.56 174.16 48.14 174.38C48.71 174.61 49.23 174.92 49.71 175.31C50.19 175.7 50.59 176.17 50.94 176.7L50.96 176.72Z"/>
				<path class="shp0" d="M31.52 164.45L31.58 164.58C30.78 165.32 30.21 166.2 29.85 167.21C29.5 168.23 29.57 169.26 30.06 170.31L30.16 170.53L41.27 165.32C42.06 164.95 42.53 164.62 42.69 164.35C42.86 164.07 42.93 163.53 42.91 162.72L43.05 162.66L46.06 169.08L45.92 169.14C45.31 168.61 44.85 168.32 44.53 168.26C44.21 168.21 43.65 168.36 42.87 168.73L31.76 173.94L31.9 174.24C32.39 175.29 33.14 175.99 34.14 176.36C35.14 176.73 36.18 176.86 37.28 176.74L37.34 176.88L33.13 178.42L27.65 166.72L31.52 164.45Z"/>
				<path class="shp0" d="M41.7 158.48C41.87 158.93 41.85 159.39 41.64 159.84C41.43 160.29 41.1 160.59 40.67 160.75C40.22 160.92 39.76 160.89 39.31 160.68C38.86 160.47 38.55 160.14 38.39 159.68C38.23 159.24 38.25 158.8 38.46 158.34C38.67 157.89 39 157.58 39.46 157.42C39.9 157.26 40.34 157.28 40.79 157.49C41.23 157.7 41.53 158.03 41.7 158.47L41.7 158.48Z"/>
				<path class="shp0" d="M34.93 145.02C34.77 144.26 34.53 143.71 34.23 143.38C33.93 143.05 33.41 142.7 32.67 142.33L32.71 142.19L37.24 142.6L39.16 151.64L38.65 151.75C35.87 149.97 33.59 148.74 31.82 148.05C30.04 147.37 28.55 147.15 27.33 147.4C26.42 147.59 25.75 147.98 25.35 148.54C24.95 149.1 24.82 149.74 24.96 150.43C25.21 151.6 26.08 152.6 27.57 153.44L27.48 153.82C24.67 152.81 23.05 151.33 22.64 149.4C22.42 148.35 22.57 147.37 23.11 146.44C23.65 145.51 24.51 144.93 25.69 144.67C26.28 144.55 26.9 144.53 27.57 144.64C28.24 144.75 28.84 144.91 29.39 145.12C29.94 145.33 30.63 145.7 31.47 146.24C32.31 146.77 32.98 147.22 33.5 147.59C34.02 147.96 34.79 148.53 35.83 149.31L34.9 145L34.93 145.02Z"/>
				<path fill-rule="evenodd" class="shp0" d="M34.83 139.16C33.51 140.46 31.62 141.21 29.17 141.41C26.72 141.61 24.73 141.18 23.19 140.11C21.65 139.04 20.81 137.72 20.69 136.15C20.57 134.58 21.18 133.14 22.53 131.84C23.89 130.54 25.79 129.79 28.26 129.59C30.71 129.39 32.68 129.82 34.17 130.88C35.66 131.94 36.5 133.26 36.62 134.82C36.75 136.41 36.16 137.86 34.83 139.16ZM36.01 134.91C35.95 134.12 35.26 133.55 33.97 133.22C32.67 132.88 30.85 132.81 28.5 133C26.02 133.2 24.19 133.59 23 134.16C21.81 134.73 21.25 135.39 21.31 136.14C21.37 136.89 22.03 137.44 23.28 137.8C24.53 138.16 26.39 138.23 28.86 138.03C31.37 137.82 33.2 137.44 34.36 136.87C35.52 136.3 36.07 135.65 36 134.89L36.01 134.91Z"/>
				<path class="shp0" d="M35.83 127.65C35.53 126.9 35.24 126.43 34.98 126.24C34.72 126.05 34.15 125.94 33.28 125.91L24.35 125.66C23.8 125.64 23.39 125.77 23.13 126.03C22.87 126.29 22.55 126.83 22.19 127.63L22.06 127.63L20.32 122.25L33.38 122.62C34.25 122.64 34.82 122.56 35.09 122.39C35.36 122.22 35.68 121.75 36.02 121.01L36.17 121.01L35.98 127.64L35.83 127.65Z"/>
				<path fill-rule="evenodd" class="shp0" d="M37.15 115.19C36.95 116.67 36.41 117.87 35.53 118.79C34.65 119.71 33.59 120.09 32.36 119.92C31.41 119.79 30.64 119.37 30.03 118.67C29.42 117.96 29.04 117.09 28.9 116.04C27.65 117.76 26.21 118.51 24.58 118.29C23.36 118.12 22.47 117.53 21.89 116.5C21.31 115.47 21.12 114.28 21.3 112.92C21.48 111.6 21.95 110.54 22.7 109.74C23.46 108.93 24.3 108.59 25.23 108.72C26.03 108.83 26.67 109.25 27.16 109.99C27.65 110.73 27.96 111.49 28.1 112.29C28.38 111.92 28.59 111.63 28.73 111.45C28.87 111.27 29.13 110.98 29.5 110.6C29.87 110.22 30.23 109.93 30.54 109.75C30.86 109.57 31.27 109.4 31.77 109.28C32.27 109.15 32.8 109.13 33.34 109.2C34.72 109.39 35.74 110.05 36.41 111.2C37.08 112.35 37.31 113.68 37.1 115.2L37.15 115.19ZM27.86 112.65C27.14 111.62 26.19 111.03 24.99 110.87C24.17 110.76 23.48 110.9 22.93 111.31C22.38 111.71 22.06 112.26 21.96 112.96C21.87 113.61 22 114.16 22.37 114.6C22.73 115.05 23.26 115.33 23.95 115.42C24.67 115.52 25.32 115.35 25.89 114.9C26.46 114.45 27.12 113.7 27.87 112.64L27.86 112.65ZM36.53 115.12C36.64 114.33 36.48 113.66 36.07 113.12C35.66 112.58 35.06 112.25 34.3 112.15C33.47 112.04 32.67 112.27 31.92 112.83C31.16 113.4 30.28 114.35 29.27 115.69C29.97 116.79 31.04 117.44 32.5 117.65C33.64 117.8 34.55 117.65 35.27 117.17C35.98 116.69 36.4 116 36.52 115.1L36.53 115.12Z"/>
			</g>
		</g>
		<g>
			<path class="shp0" d="M209.27 77.64C208.49 78.19 208.02 78.63 207.86 78.97C207.7 79.31 207.67 79.85 207.77 80.6L207.62 80.71L203.48 74.83L203.63 74.73C204.3 75.08 204.83 75.25 205.21 75.22C205.59 75.19 206.17 74.91 206.95 74.36C206.96 74.35 207.71 73.82 209.2 72.79C210.69 71.76 211.44 71.23 211.45 71.22C212.13 70.74 212.53 70.23 212.66 69.67C212.79 69.12 212.69 68.61 212.36 68.14C211.82 67.37 210.87 67 209.54 67.04L204.36 70.68C203.57 71.23 203.11 71.67 202.95 72.01C202.79 72.34 202.75 72.88 202.84 73.61L202.69 73.71L198.57 67.85L198.72 67.75C199.39 68.1 199.91 68.26 200.28 68.22C200.65 68.18 201.22 67.89 202 67.34L211.8 60.45C212.49 59.97 212.98 59.54 213.27 59.19C213.56 58.84 213.72 58.55 213.76 58.34C213.8 58.12 213.8 57.72 213.79 57.15L213.94 57.05C215.2 58.59 216.55 59.93 218.01 61.08L210.29 66.51C212.51 66.45 214.16 67.16 215.21 68.66C215.46 69.02 215.66 69.41 215.79 69.82C215.92 70.23 216 70.68 216.02 71.18C216.04 71.68 215.89 72.19 215.6 72.71C215.3 73.23 214.85 73.71 214.22 74.15L209.25 77.64L209.27 77.64Z"/>
			<path fill-rule="evenodd" class="shp0" d="M216.97 89.48C216.47 89.61 215.96 89.69 215.45 89.72C214.94 89.74 214.34 89.71 213.67 89.6C212.99 89.49 212.34 89.18 211.71 88.67C211.08 88.16 210.55 87.47 210.11 86.6C209.27 84.91 209.11 83.23 209.63 81.57C210.15 79.91 211.32 78.63 213.13 77.72C214.91 76.83 216.63 76.65 218.29 77.19C219.95 77.72 221.21 78.86 222.07 80.6C222.52 81.5 222.76 82.38 222.78 83.24C222.8 84.1 222.66 84.82 222.35 85.42C222.04 86.02 221.7 86.53 221.32 86.92C220.94 87.31 220.54 87.61 220.13 87.82L219.84 87.97L216.05 80.38L215.72 80.54C214.22 81.29 213.3 82.27 212.98 83.46C212.66 84.65 212.78 85.82 213.35 86.95C214.11 88.5 215.31 89.27 216.94 89.28L216.97 89.48ZM221.29 80.51C220.98 79.9 220.42 79.55 219.61 79.49C218.8 79.43 217.82 79.65 216.67 80.12L218.83 84.34C219.17 84.15 219.5 83.95 219.82 83.71C220.14 83.48 220.46 83.19 220.78 82.84C221.1 82.49 221.31 82.11 221.41 81.7C221.51 81.29 221.47 80.89 221.28 80.51L221.29 80.51Z"/>
			<path fill-rule="evenodd" class="shp0" d="M216.2 102.51C215.91 101.61 215.97 100.9 216.4 100.36C216.82 99.83 217.4 99.46 218.11 99.27L218.1 99.25C217.28 99.11 216.48 98.75 215.69 98.14C214.91 97.54 214.36 96.72 214.02 95.7C213.69 94.68 213.69 93.77 214.03 92.97C214.37 92.18 214.97 91.64 215.82 91.36C217.06 90.95 218.33 91.29 219.62 92.35C220.91 93.41 222.3 95.11 223.78 97.43L225.79 96.83C226.27 96.68 226.67 96.43 226.96 96.08C227.25 95.73 227.32 95.3 227.15 94.79C226.9 94.04 226.3 93.57 225.34 93.39C224.38 93.21 223.33 93.23 222.17 93.43L222.1 93.32L222.84 90.12C223.84 90.3 224.82 90.78 225.76 91.59C226.71 92.4 227.42 93.55 227.91 95.04C228.22 95.99 228.35 96.83 228.3 97.57C228.26 98.31 228.06 98.9 227.7 99.36C227.35 99.82 226.96 100.18 226.53 100.44C226.1 100.7 225.62 100.91 225.09 101.08L219.07 102.92C218.52 103.1 218.31 103.39 218.46 103.79C218.61 104.25 219.06 104.51 219.82 104.57L219.79 104.81C219.03 104.81 218.31 104.63 217.66 104.24C217 103.86 216.54 103.26 216.26 102.44L216.2 102.51ZM216.83 97.15C217.09 97.95 217.75 98.55 218.81 98.96L223.22 97.62C221.6 95.33 219.94 94.46 218.24 95.01C217.64 95.21 217.21 95.5 216.97 95.89C216.73 96.28 216.69 96.7 216.84 97.16L216.83 97.15Z"/>
			<path class="shp0" d="M217.49 105.23C217.95 105.83 218.36 106.19 218.71 106.31C219.06 106.43 219.7 106.41 220.64 106.23L226.16 105.22C227.17 105.04 227.85 104.82 228.21 104.56C228.57 104.3 228.88 103.81 229.13 103.09L229.31 103.06C229.74 104.85 230.41 106.61 231.3 108.33L228.68 108.76L228.69 108.81C229.38 108.92 230.04 109.23 230.69 109.75C231.34 110.26 231.75 110.99 231.92 111.92C232 112.35 231.97 112.78 231.85 113.19L227.57 113.44L227.54 113.26C228.76 111.9 229.31 110.86 229.16 110.11C229.06 109.58 228.67 109.21 227.98 109.04L221.41 110.24C220.47 110.41 219.86 110.64 219.59 110.93C219.31 111.22 219.08 111.83 218.9 112.75L218.72 112.78L217.34 105.24L217.49 105.23Z"/>
			<path class="shp0" d="M219.36 120.78C219.28 119.77 219.53 118.91 220.09 118.19C220.66 117.47 221.55 117.07 222.75 116.97L231.29 116.31L231.19 115.07L231.6 115.04C233.31 117.48 234.79 119.03 236.03 119.67L236.05 119.95L232.4 120.23L232.65 123.48L231.83 123.41L231.59 120.34L223.67 120.87C222.79 120.93 222.19 121.14 221.84 121.53C221.49 121.92 221.35 122.37 221.39 122.87C221.44 123.49 221.78 124.06 222.4 124.58L222.27 124.72C220.45 123.81 219.47 122.48 219.34 120.74L219.34 120.78L219.36 120.78Z"/>
			<path class="shp0" d="M222.5 138.71C221.54 138.66 220.91 138.72 220.57 138.88C220.24 139.04 219.88 139.45 219.5 140.11L219.32 140.1L219.7 132.93L219.88 132.94C220.2 133.63 220.51 134.09 220.82 134.3C221.13 134.51 221.76 134.65 222.72 134.7C222.73 134.7 223.65 134.75 225.46 134.86C227.27 134.97 228.19 135.01 228.2 135.02C229.03 135.06 229.66 134.9 230.1 134.55C230.55 134.2 230.78 133.73 230.81 133.16C230.86 132.21 230.35 131.35 229.27 130.55L222.95 130.22C221.99 130.17 221.36 130.23 221.02 130.39C220.69 130.55 220.33 130.95 219.95 131.58L219.77 131.57L220.14 124.42L220.32 124.43C220.63 125.12 220.95 125.56 221.26 125.76C221.57 125.96 222.2 126.08 223.16 126.13L235.11 126.75C235.95 126.79 236.6 126.76 237.05 126.67C237.49 126.58 237.8 126.45 237.96 126.3C238.12 126.15 238.37 125.84 238.72 125.38L238.9 125.39C238.94 127.38 239.18 129.27 239.61 131.07L230.19 130.58C231.97 131.91 232.82 133.48 232.73 135.3C232.71 135.74 232.62 136.16 232.47 136.57C232.32 136.98 232.1 137.38 231.81 137.78C231.52 138.18 231.09 138.49 230.53 138.72C229.97 138.95 229.32 139.05 228.56 139.01L222.5 138.69L222.5 138.71Z"/>
		</g>
	</g>
</svg>