<svg width="52" height="46" viewBox="0 0 52 46" fill="none" xmlns="http://www.w3.org/2000/svg">
<path d="M10.9564 35.88C10.9564 35.5024 10.8227 35.2114 10.5553 35.0069C10.2918 34.8024 9.81391 34.5959 9.1217 34.3874C8.4295 34.179 7.87889 33.9469 7.46986 33.6913C6.6872 33.1997 6.29587 32.5586 6.29587 31.7681C6.29587 31.0759 6.57708 30.5056 7.13949 30.0572C7.70584 29.6089 8.43934 29.3847 9.33998 29.3847C9.93779 29.3847 10.4707 29.4948 10.9387 29.7151C11.4068 29.9353 11.7745 30.25 12.0419 30.659C12.3094 31.0641 12.4431 31.5144 12.4431 32.01H10.9564C10.9564 31.5616 10.8148 31.2116 10.5317 30.9599C10.2524 30.7042 9.85127 30.5764 9.32818 30.5764C8.8405 30.5764 8.46097 30.6806 8.18959 30.8891C7.92215 31.0975 7.78843 31.3886 7.78843 31.7622C7.78843 32.0768 7.93395 32.3403 8.22499 32.5527C8.51603 32.7612 8.99585 32.9657 9.66445 33.1663C10.3331 33.3629 10.8699 33.589 11.275 33.8447C11.6801 34.0964 11.977 34.3874 12.1658 34.7178C12.3546 35.0442 12.449 35.4277 12.449 35.8682C12.449 36.584 12.1737 37.1543 11.6231 37.579C11.0764 37.9999 10.3331 38.2103 9.39308 38.2103C8.77167 38.2103 8.19943 38.0962 7.67634 37.8681C7.15719 37.6361 6.7521 37.3175 6.46106 36.9124C6.17395 36.5073 6.0304 36.0353 6.0304 35.4965H7.52296C7.52296 35.9842 7.68421 36.3618 8.00671 36.6292C8.32921 36.8967 8.79134 37.0304 9.39308 37.0304C9.91223 37.0304 10.3016 36.9262 10.5612 36.7177C10.8247 36.5053 10.9564 36.2261 10.9564 35.88ZM15.145 38.0923H13.7115V31.7091H15.145V38.0923ZM13.623 30.0513C13.623 29.8311 13.6918 29.6482 13.8295 29.5027C13.971 29.3572 14.1716 29.2844 14.4312 29.2844C14.6908 29.2844 14.8914 29.3572 15.0329 29.5027C15.1745 29.6482 15.2453 29.8311 15.2453 30.0513C15.2453 30.2677 15.1745 30.4486 15.0329 30.5941C14.8914 30.7357 14.6908 30.8065 14.4312 30.8065C14.1716 30.8065 13.971 30.7357 13.8295 30.5941C13.6918 30.4486 13.623 30.2677 13.623 30.0513ZM18.0417 31.7091L18.083 32.4465C18.5549 31.8762 19.1743 31.5911 19.9413 31.5911C21.2706 31.5911 21.9471 32.3521 21.9707 33.8742V38.0923H20.5371V33.9568C20.5371 33.5517 20.4486 33.2528 20.2716 33.0601C20.0986 32.8634 19.8135 32.7651 19.4162 32.7651C18.8381 32.7651 18.4074 33.0266 18.1242 33.5497V38.0923H16.6907V31.7091H18.0417ZM23.186 34.8535C23.186 33.8624 23.418 33.0719 23.8821 32.4819C24.3501 31.888 24.9696 31.5911 25.7404 31.5911C26.468 31.5911 27.0403 31.8448 27.4572 32.3521L27.5221 31.7091H28.814V37.8976C28.814 38.7353 28.5525 39.3961 28.0294 39.8798C27.5103 40.3636 26.8082 40.6054 25.9233 40.6054C25.4553 40.6054 24.9971 40.5071 24.5487 40.3105C24.1043 40.1178 23.7661 39.8641 23.534 39.5494L24.2125 38.6881C24.653 39.2112 25.1957 39.4728 25.8407 39.4728C26.3166 39.4728 26.6922 39.343 26.9675 39.0834C27.2428 38.8277 27.3805 38.4502 27.3805 37.9507V37.52C26.9675 37.9802 26.4169 38.2103 25.7286 38.2103C24.9814 38.2103 24.3698 37.9133 23.8939 37.3195C23.4219 36.7256 23.186 35.9036 23.186 34.8535ZM24.6136 34.9774C24.6136 35.6185 24.7434 36.1238 25.003 36.4935C25.2665 36.8593 25.6303 37.0422 26.0944 37.0422C26.6725 37.0422 27.1012 36.7944 27.3805 36.2989V33.4907C27.1091 33.007 26.6843 32.7651 26.1062 32.7651C25.6342 32.7651 25.2665 32.9519 25.003 33.3255C24.7434 33.6992 24.6136 34.2498 24.6136 34.9774ZM30.0234 34.8417C30.0234 34.2164 30.1473 33.6539 30.3951 33.1545C30.6429 32.651 30.9909 32.2656 31.4393 31.9982C31.8876 31.7268 32.4029 31.5911 32.9849 31.5911C33.8463 31.5911 34.5444 31.8684 35.0792 32.4229C35.6181 32.9775 35.9091 33.7129 35.9524 34.6293L35.9583 34.9656C35.9583 35.5949 35.8363 36.1573 35.5925 36.6528C35.3526 37.1484 35.0065 37.5318 34.5542 37.8032C34.1058 38.0746 33.5867 38.2103 32.9967 38.2103C32.0961 38.2103 31.3744 37.9114 30.8316 37.3136C30.2928 36.7118 30.0234 35.9115 30.0234 34.9125V34.8417ZM31.457 34.9656C31.457 35.6224 31.5927 36.1376 31.864 36.5112C32.1354 36.8809 32.513 37.0658 32.9967 37.0658C33.4805 37.0658 33.8561 36.877 34.1235 36.4994C34.3949 36.1219 34.5306 35.5693 34.5306 34.8417C34.5306 34.1967 34.391 33.6854 34.1117 33.3078C33.8364 32.9303 33.4608 32.7415 32.9849 32.7415C32.5169 32.7415 32.1452 32.9283 31.8699 33.3019C31.5946 33.6716 31.457 34.2262 31.457 34.9656ZM38.6956 38.0923H37.262V29.0307H38.6956V38.0923ZM39.9935 34.8417C39.9935 34.2164 40.1174 33.6539 40.3651 33.1545C40.6129 32.651 40.961 32.2656 41.4093 31.9982C41.8577 31.7268 42.3729 31.5911 42.955 31.5911C43.8163 31.5911 44.5144 31.8684 45.0493 32.4229C45.5881 32.9775 45.8791 33.7129 45.9224 34.6293L45.9283 34.9656C45.9283 35.5949 45.8064 36.1573 45.5625 36.6528C45.3226 37.1484 44.9765 37.5318 44.5242 37.8032C44.0759 38.0746 43.5567 38.2103 42.9668 38.2103C42.0661 38.2103 41.3444 37.9114 40.8017 37.3136C40.2629 36.7118 39.9935 35.9115 39.9935 34.9125V34.8417ZM41.427 34.9656C41.427 35.6224 41.5627 36.1376 41.8341 36.5112C42.1055 36.8809 42.483 37.0658 42.9668 37.0658C43.4505 37.0658 43.8261 36.877 44.0936 36.4994C44.365 36.1219 44.5006 35.5693 44.5006 34.8417C44.5006 34.1967 44.361 33.6854 44.0818 33.3078C43.8065 32.9303 43.4309 32.7415 42.955 32.7415C42.487 32.7415 42.1153 32.9283 41.84 33.3019C41.5647 33.6716 41.427 34.2262 41.427 34.9656Z" fill="black"/>
<path d="M25.7237 7.89783C27.846 7.89783 29.5723 6.12681 29.5723 3.94949C29.5723 1.77216 27.846 0 25.7237 0C23.6014 0 21.8751 1.77101 21.8751 3.94834C21.8751 6.12567 23.6014 7.89783 25.7237 7.89783ZM25.7237 1.14777C27.2296 1.14777 28.4535 2.40459 28.4535 3.94834C28.4535 5.49324 27.2284 6.74891 25.7237 6.74891C24.2189 6.74891 22.9939 5.49209 22.9939 3.94834C22.9928 2.40459 24.2178 1.14777 25.7237 1.14777Z" fill="black"/>
<path d="M25.7236 8.84253C22.5676 8.84253 20 11.4767 20 14.7134V23.5271H31.4462V14.7134C31.4462 11.4767 28.8786 8.84253 25.7236 8.84253ZM30.3274 22.3805H21.1188V14.7145C21.1188 12.1102 23.184 9.9903 25.7236 9.9903C28.2621 9.9903 30.3285 12.1091 30.3285 14.7145V22.3805H30.3274Z" fill="black"/>
</svg>
