<svg xmlns="http://www.w3.org/2000/svg" version="1.1" xmlns:xlink="http://www.w3.org/1999/xlink" xmlns:svgjs="http://svgjs.com/svgjs" width="512" height="512" x="0" y="0" viewBox="0 0 512 512" style="enable-background:new 0 0 512 512" xml:space="preserve" class=""><g>
<g xmlns="http://www.w3.org/2000/svg">
	<g>
		<path d="M504.499,497h-9.067v-25.633c0-4.143-3.357-7.5-7.5-7.5h-9.065V288.35h0.784c3.228,0,6.095-2.065,7.115-5.128    l8.283-24.851c0.763-2.287,0.379-4.802-1.031-6.758c-1.409-1.955-3.673-3.114-6.084-3.114h-9.067V126.572l14.37-14.371    c1.406-1.406,2.196-3.313,2.196-5.303V73.765c0-4.143-3.357-7.5-7.5-7.5h-9.066V48.132h9.065c4.143,0,7.5-3.357,7.5-7.5V7.5    c0-4.143-3.357-7.5-7.5-7.5H105.315c-4.142,0-7.5,3.357-7.5,7.5s3.358,7.5,7.5,7.5h375.115v18.132h-42.189    c-0.006,0-0.013-0.001-0.019-0.001c-0.007,0-0.013,0.001-0.019,0.001h-33.094c-0.007,0-0.013-0.001-0.019-0.001    c-0.006,0-0.013,0.001-0.019,0.001h-33.093c-0.007,0-0.013-0.001-0.019-0.001c-0.006,0-0.013,0.001-0.019,0.001h-33.094    c-0.007,0-0.013-0.001-0.019-0.001c-0.007,0-0.013,0.001-0.019,0.001h-33.094c-0.007,0-0.013-0.001-0.019-0.001    c-0.007,0-0.013,0.001-0.019,0.001h-33.097c-0.007,0-0.013-0.001-0.019-0.001c-0.006,0-0.013,0.001-0.019,0.001h-33.094    c-0.007,0-0.013-0.001-0.019-0.001c-0.006,0-0.013,0.001-0.019,0.001h-33.094c-0.007,0-0.013-0.001-0.019-0.001    s-0.013,0.001-0.019,0.001h-33.094c-0.007,0-0.013-0.001-0.019-0.001c-0.007,0-0.013,0.001-0.019,0.001h-33.096    c-0.007,0-0.013-0.001-0.019-0.001c-0.007,0-0.013,0.001-0.019,0.001h-33.094c-0.007,0-0.013-0.001-0.019-0.001    c-0.007,0-0.013,0.001-0.019,0.001H73.785c-0.007,0-0.013-0.001-0.019-0.001c-0.006,0-0.013,0.001-0.019,0.001h-42.18V15h43.781    c4.142,0,7.5-3.357,7.5-7.5S79.489,0,75.348,0H24.065c-4.142,0-7.5,3.357-7.5,7.5v33.132c0,4.143,3.358,7.5,7.5,7.5h9.067v18.133    h-9.066c-4.142,0-7.5,3.357-7.5,7.5v33.134c0,1.989,0.79,3.896,2.196,5.303l14.37,14.371V248.5h-9.067    c-2.411,0-4.675,1.159-6.084,3.114c-1.409,1.956-1.793,4.47-1.031,6.757l8.283,24.851c1.021,3.064,3.887,5.129,7.115,5.129h0.785    v175.518h-9.066c-4.142,0-7.5,3.357-7.5,7.5V497H7.502c-4.142,0-7.5,3.357-7.5,7.5s3.358,7.5,7.5,7.5h496.997    c4.143,0,7.5-3.357,7.5-7.5S508.64,497,504.499,497z M445.723,48.132h18.143v18.133h-18.143V48.132z M412.59,48.132h18.133v18.133    H412.59V48.132z M379.457,48.132h18.132v18.133h-18.132V48.132z M346.325,48.132h18.133v18.133h-18.133V48.132z M313.192,48.132    h18.133v18.133h-18.133V48.132z M280.061,48.132h18.132v18.133h-18.132V48.132z M246.927,48.132h18.133v18.133h-18.133V48.132z     M213.796,48.132h18.132v18.133h-18.132V48.132z M180.663,48.132h18.133v18.133h-18.133V48.132z M147.531,48.132h18.132v18.133    h-18.132V48.132z M114.398,48.132h18.132v18.133h-18.132V48.132z M81.265,48.132h18.132v18.133H81.265V48.132z M48.133,48.132    h18.132v18.133H48.133V48.132z M31.567,103.792V81.265h9.046c0.007,0,0.013,0.001,0.019,0.001c0.007,0,0.013-0.001,0.019-0.001    h33.094c0.007,0,0.013,0.001,0.019,0.001s0.013-0.001,0.019-0.001h33.094c0.007,0,0.013,0.001,0.019,0.001    c0.007,0,0.013-0.001,0.019-0.001h33.094c0.007,0,0.013,0.001,0.019,0.001c0.007,0,0.013-0.001,0.019-0.001h33.094    c0.007,0,0.013,0.001,0.019,0.001c0.007,0,0.013-0.001,0.019-0.001h33.094c0.007,0,0.013,0.001,0.019,0.001    c0.006,0,0.013-0.001,0.019-0.001h33.094c0.007,0,0.013,0.001,0.019,0.001s0.013-0.001,0.019-0.001h33.094    c0.007,0,0.013,0.001,0.019,0.001c0.007,0,0.013-0.001,0.019-0.001h33.093c0.007,0,0.013,0.001,0.019,0.001    c0.007,0,0.013-0.001,0.019-0.001h33.094c0.007,0,0.013,0.001,0.019,0.001c0.007,0,0.013-0.001,0.019-0.001h33.094    c0.007,0,0.013,0.001,0.019,0.001c0.006,0,0.013-0.001,0.019-0.001h33.093c0.007,0,0.013,0.001,0.019,0.001    c0.006,0,0.013-0.001,0.019-0.001h33.094c0.007,0,0.013,0.001,0.019,0.001c0.007,0,0.013-0.001,0.019-0.001h33.104    c0.007,0,0.013,0.001,0.019,0.001c0.007,0,0.013-0.001,0.019-0.001h9.047v22.527l-12.173,12.174H272.605    c-0.013,0-0.026-0.002-0.039-0.002h-33.133c-0.013,0-0.026,0.002-0.039,0.002H43.741L31.567,103.792z M445.733,413.366v-17.332    h9.067c4.142,0,7.5-3.357,7.5-7.5s-3.358-7.5-7.5-7.5h-9.067v-42.2c0-22.405-18.228-40.634-40.634-40.634    s-40.634,18.229-40.634,40.634v42.2H355.4c-4.143,0-7.5,3.357-7.5,7.5s3.357,7.5,7.5,7.5h9.065v67.834H346.33V288.35h117.534    v175.517h-18.131v-50.463c0-0.006,0.001-0.013,0.001-0.019C445.735,413.378,445.733,413.372,445.733,413.366z M379.465,405.885    v-9.85h51.268v9.85H379.465z M430.733,420.885v42.982h-51.268v-42.982H430.733z M379.465,381.033v-42.2    c0-14.135,11.499-25.634,25.634-25.634s25.634,11.499,25.634,25.634v42.2H379.465z M338.85,273.35    c-0.007,0-0.013-0.001-0.019-0.001c-0.007,0-0.013,0.001-0.019,0.001h-2.858l-3.283-9.851h144.856l-3.284,9.851h-2.859    c-0.007,0-0.013-0.001-0.019-0.001c-0.007,0-0.013,0.001-0.019,0.001H338.85z M280.066,168.927v-37.961h183.799v117.533H346.017    C342.866,210.346,315.905,178.845,280.066,168.927z M265.066,130.966v34.7h-18.133v-34.7H265.066z M156.598,381.034h-9.066v-42.2    c0-22.405-18.228-40.634-40.633-40.634c-22.405,0-40.633,18.229-40.633,40.634v42.2h-9.068c-4.142,0-7.5,3.357-7.5,7.5    s3.358,7.5,7.5,7.5h9.068v17.323c0,0.01-0.002,0.019-0.002,0.029s0.001,0.019,0.002,0.029v50.453H48.133V288.35h117.534v175.518    h-18.135v-67.834h9.066c4.142,0,7.5-3.357,7.5-7.5S160.741,381.034,156.598,381.034z M81.265,405.885v-9.85h51.267v9.85H81.265z     M132.533,420.885v42.982H81.265v-42.982H132.533z M81.265,381.033v-42.2c0-14.135,11.499-25.634,25.633-25.634    c14.134,0,25.633,11.499,25.633,25.634v42.2H81.265z M40.653,273.35c-0.007,0-0.013-0.001-0.019-0.001    c-0.007,0-0.013,0.001-0.019,0.001h-2.859l-3.283-9.851h144.856l-3.284,9.851h-2.858c-0.007,0-0.013-0.001-0.019-0.001    c-0.007,0-0.013,0.001-0.019,0.001H40.653z M165.981,248.499H48.133V130.966h183.8v37.96    C196.093,178.844,169.132,210.345,165.981,248.499z M182.231,497H31.567v-18.133h150.663V497z M314.768,471.368V497H197.231    v-25.633c0-4.142-3.357-7.5-7.5-7.5h-9.064V288.35h0.783c3.228,0,6.094-2.065,7.115-5.128l8.284-24.851    c0.762-2.287,0.379-4.802-1.031-6.758c-1.41-1.955-3.674-3.114-6.084-3.114h-8.691c3.776-38.03,35.95-67.833,74.957-67.833    c39.007,0,71.181,29.803,74.957,67.833h-8.691c-2.411,0-4.675,1.159-6.084,3.114c-1.41,1.956-1.794,4.471-1.031,6.758    l8.284,24.851c1.021,3.063,3.887,5.128,7.115,5.128h0.782v175.518h-9.063C318.125,463.868,314.768,467.225,314.768,471.368z     M480.431,497H329.767v-18.133h150.663V497z" fill="#000000" data-original="#000000" class=""></path>
	</g>
</g>
<g xmlns="http://www.w3.org/2000/svg">
	<g>
		<path d="M156.598,149.099H73.765c-4.142,0-7.5,3.357-7.5,7.5v74.55c0,4.143,3.358,7.5,7.5,7.5h33.132    c1.754,0,3.454-0.615,4.801-1.738l49.7-41.416c1.71-1.425,2.699-3.536,2.699-5.762v-33.134    C164.098,152.456,160.741,149.099,156.598,149.099z M104.184,223.649H81.265v-59.55h67.832v22.121h0.001L104.184,223.649z" fill="#000000" data-original="#000000" class=""></path>
	</g>
</g>
<g xmlns="http://www.w3.org/2000/svg">
	<g>
		<path d="M438.231,149.099H355.4c-4.143,0-7.5,3.357-7.5,7.5v33.134c0,2.226,0.988,4.337,2.698,5.762l49.7,41.416    c1.349,1.123,3.047,1.738,4.802,1.738h33.132c4.143,0,7.5-3.357,7.5-7.5v-74.55C445.731,152.456,442.374,149.099,438.231,149.099z     M430.731,223.648h-22.917L362.9,186.22v-22.121h67.832V223.648z" fill="#000000" data-original="#000000" class=""></path>
	</g>
</g>
<g xmlns="http://www.w3.org/2000/svg">
	<g>
		<circle cx="90.33" cy="98.62" r="7.766" fill="#000000" data-original="#000000" class=""></circle>
	</g>
</g>
<g xmlns="http://www.w3.org/2000/svg">
	<g>
		<circle cx="156.6" cy="98.62" r="7.766" fill="#000000" data-original="#000000" class=""></circle>
	</g>
</g>
<g xmlns="http://www.w3.org/2000/svg">
	<g>
		<circle cx="222.869" cy="98.62" r="7.766" fill="#000000" data-original="#000000" class=""></circle>
	</g>
</g>
<g xmlns="http://www.w3.org/2000/svg">
	<g>
		<circle cx="289.129" cy="98.62" r="7.766" fill="#000000" data-original="#000000" class=""></circle>
	</g>
</g>
<g xmlns="http://www.w3.org/2000/svg">
	<g>
		<circle cx="355.4" cy="98.62" r="7.766" fill="#000000" data-original="#000000" class=""></circle>
	</g>
</g>
<g xmlns="http://www.w3.org/2000/svg">
	<g>
		<circle cx="421.67" cy="98.62" r="7.766" fill="#000000" data-original="#000000" class=""></circle>
	</g>
</g>
<g xmlns="http://www.w3.org/2000/svg">
</g>
<g xmlns="http://www.w3.org/2000/svg">
</g>
<g xmlns="http://www.w3.org/2000/svg">
</g>
<g xmlns="http://www.w3.org/2000/svg">
</g>
<g xmlns="http://www.w3.org/2000/svg">
</g>
<g xmlns="http://www.w3.org/2000/svg">
</g>
<g xmlns="http://www.w3.org/2000/svg">
</g>
<g xmlns="http://www.w3.org/2000/svg">
</g>
<g xmlns="http://www.w3.org/2000/svg">
</g>
<g xmlns="http://www.w3.org/2000/svg">
</g>
<g xmlns="http://www.w3.org/2000/svg">
</g>
<g xmlns="http://www.w3.org/2000/svg">
</g>
<g xmlns="http://www.w3.org/2000/svg">
</g>
<g xmlns="http://www.w3.org/2000/svg">
</g>
<g xmlns="http://www.w3.org/2000/svg">
</g>
</g></svg>