<svg xmlns="http://www.w3.org/2000/svg" version="1.1" xmlns:xlink="http://www.w3.org/1999/xlink" xmlns:svgjs="http://svgjs.com/svgjs" width="512" height="512" x="0" y="0" viewBox="0 0 512 512" style="enable-background:new 0 0 512 512" xml:space="preserve" class=""><g><g xmlns="http://www.w3.org/2000/svg"><path d="m504.5 460.473h-497c-4.142 0-7.5 3.358-7.5 7.5s3.358 7.5 7.5 7.5h497c4.142 0 7.5-3.358 7.5-7.5s-3.358-7.5-7.5-7.5z" fill="#000000" data-original="#000000" class=""></path><path d="m7.5 275.328h29.112c-1.658 4.908-2.487 9.953-2.491 15.116-.001.04-.006.078-.006.118v82.389h-10.525c-4.142 0-7.5 3.358-7.5 7.5s3.358 7.5 7.5 7.5h240.884l-3.579 17.479c-.452 2.207.112 4.5 1.537 6.246s3.558 2.758 5.811 2.758l93.543.002c2.042 0 3.995-.833 5.409-2.305 1.415-1.472 2.167-3.458 2.084-5.498-.275-6.799-2.167-13.143-5.287-18.683h120.59c4.142 0 7.5-3.358 7.5-7.5s-3.358-7.5-7.5-7.5h-14.545v-97.623h34.463c4.142 0 7.5-3.358 7.5-7.5s-3.358-7.5-7.5-7.5h-37.27c-1.647-4.71-4.009-9.235-7.065-13.443-9.87-13.587-25.762-21.699-42.513-21.699h-4v-19.629c7.823-4.418 13.12-12.807 13.12-22.414 0-4.142-3.358-7.5-7.5-7.5s-7.5 3.358-7.5 7.5c0 5.916-4.813 10.728-10.728 10.728-5.916 0-10.728-4.813-10.728-10.728v-4.359c0-12.147-9.882-22.029-22.029-22.029s-22.029 9.882-22.029 22.029v35.025c0 4.604-3.746 8.35-8.35 8.35s-8.35-3.746-8.35-8.35v-13.772c0-7.13-3.717-13.459-9.943-16.929-6.23-3.474-13.574-3.306-19.645.448-20.598 12.736-55.154 41.25-55.154 89.114 0 4.142 3.358 7.5 7.5 7.5s7.5-3.358 7.5-7.5c0-2.161.094-4.27.253-6.341h164.85c4.142 0 7.5-3.358 7.5-7.5s-3.358-7.5-7.5-7.5h-11.268v-11.142h4c12.143 0 23.215 5.655 30.376 15.515 6.905 9.506 8.813 21.27 5.235 32.274-2.521 7.755-10.068 21.117-32.428 27.365-.58.086-1.139.235-1.668.446-14.748 3.763-35.632 4.498-65.222-1.117-4.07-.768-7.995 1.901-8.767 5.97-.772 4.07 1.901 7.995 5.97 8.767 15.842 3.006 29.562 4.299 41.446 4.299 8.11 0 15.358-.606 21.846-1.676v17.531c0 4.142 3.358 7.5 7.5 7.5s7.5-3.358 7.5-7.5v-21.211c11.549-3.9 19.763-9.512 25.597-15.413v60.016h-105.549c-6.283-3.826-13.667-6.029-21.574-6.029-.172 0-.342.01-.513.012l-1.896-13.149c-1.036-7.182-7.29-12.599-14.546-12.599h-24.916c-6.949 0-13.004 4.941-14.398 11.749l-4.098 20.015h-28.906v-49.36c25.999-2.874 52.819-3.831 79.517-.383 4.11.535 7.869-2.369 8.399-6.477.531-4.108-2.369-7.869-6.477-8.399-52.94-6.839-105.231 2.676-151.368 11.069-68.441 12.452-107.668 17.737-118.042-18.396-2.877-10.019-1.77-19.134 3.377-27.862.937-1.402 11.907-17.485 34.707-38.398h14.012v26.324c0 4.142 3.358 7.5 7.5 7.5s7.5-3.358 7.5-7.5v-26.324h21.508c5.144 0 9.858-2.81 12.303-7.333 2.447-4.527 2.214-10.016-.607-14.324-3.427-5.234-6.71-11.31-9.812-18.104 10.957-6.9 22.432-13.375 34.305-19.358.085 2.093.635 4.176 1.668 6.087 2.445 4.523 7.159 7.333 12.303 7.333h21.508v26.324c0 4.142 3.358 7.5 7.5 7.5s7.5-3.358 7.5-7.5v-26.324h21.508c5.144 0 9.858-2.81 12.303-7.333 2.447-4.527 2.215-10.016-.606-14.324-3.864-5.901-7.545-12.87-10.99-20.736 42.359-12.903 88.45-20.675 137.135-23.093 6.985-.35 13.618 2.113 18.676 6.926 5.036 4.792 7.81 11.258 7.81 18.208v1.457c0 4.142 3.358 7.5 7.5 7.5s7.5-3.358 7.5-7.5v-1.457c0-11.098-4.428-21.424-12.469-29.075-4.849-4.615-10.607-7.859-16.845-9.602v-26.279c3.107-1.068 5.611-3.474 6.787-6.726 1.613-4.459.299-9.3-3.345-12.333l-30.743-25.579c-4.123-3.432-10.108-3.431-14.231 0l-30.739 25.579c-3.645 3.033-4.958 7.875-3.345 12.333 1.176 3.251 3.68 5.657 6.787 6.726v30.077c-1.607.223-3.207.456-4.807.692-8.168-17.467-14.981-40.148-19.78-65.91-.949-5.09-5.224-8.645-10.396-8.645s-9.448 3.555-10.396 8.646c-2.684 14.409-6.017 27.864-9.857 39.984-4.299-12.953-7.959-27.474-10.925-43.393-.948-5.091-5.223-8.646-10.396-8.646s-9.448 3.555-10.396 8.646c-2.961 15.897-6.72 30.703-11.086 43.814-.55-2.658-1.082-5.345-1.59-8.07-.964-5.172-5.308-8.785-10.564-8.785s-9.6 3.613-10.564 8.786c-2.088 11.21-4.548 21.874-7.32 31.834-2.824-9.932-5.309-20.618-7.424-31.975-.949-5.09-5.224-8.645-10.396-8.645s-9.448 3.555-10.396 8.646c-6.421 34.472-16.542 63.511-28.498 81.768-2.688 4.105-2.959 9.306-.747 13.661-2.601 1.538-5.18 3.095-7.729 4.678-5.822-15.696-10.78-34.102-14.537-54.269-.964-5.172-5.308-8.785-10.564-8.785s-9.6 3.613-10.564 8.786c-2.655 14.252-5.901 27.669-9.649 39.879-1.215 3.96 1.009 8.155 4.969 9.371 3.962 1.216 8.156-1.009 9.371-4.969 2.117-6.897 4.079-14.152 5.87-21.703 6.875 29.04 16.132 53.137 27.154 70.538h-54.306c3.066-4.844 6.035-10.283 8.84-16.197 1.775-3.742.18-8.215-3.563-9.99-3.742-1.775-8.216-.18-9.99 3.563-2.817 5.94-5.792 11.313-8.84 15.967-2.821 4.308-3.054 9.796-.607 14.324.64 1.184 1.439 2.248 2.357 3.177-13.562 13.208-22.198 23.919-26.541 29.738h-37.267c-4.142 0-7.5 3.358-7.5 7.5s3.358 7.497 7.5 7.497zm353.759-96.544c0-3.876 3.153-7.029 7.029-7.029s7.029 3.153 7.029 7.029v4.359c0 13.379 10.267 24.401 23.335 25.613v42.572h-12.396v-30.057c0-4.142-3.358-7.5-7.5-7.5s-7.5 3.358-7.5 7.5v30.057h-9.999v-72.544zm-48.946 17.426c.675.376 2.246 1.502 2.246 3.827v13.772c0 12.875 10.475 23.35 23.35 23.35 2.942 0 5.755-.552 8.35-1.549v15.718h-45.109v-50.592c2.258-1.583 4.506-3.06 6.71-4.423 1.985-1.226 3.775-.481 4.453-.103zm-26.163 16.89v38.228h-23.453c4.37-15.681 13.266-28.295 23.453-38.228zm29.353 186.338c-.016 0-.032-.002-.048-.002h-12.423c3.639-10.263 13.403-17.513 24.881-17.513 11.48 0 21.244 7.25 24.882 17.515zm-29.214-43.25h24.405l1.964 13.622c-12.649 4.983-22.228 15.998-25.184 29.625h-10.04zm76.757-303.495 20.021 16.66h-40.041zm-19.412 31.66h38.825v24.347c-5.768.305-11.506.673-17.203 1.124v-3.716c0-4.142-3.358-7.5-7.5-7.5s-7.5 3.358-7.5 7.5v5.099c-2.212.228-4.422.462-6.622.713zm-49.978-12.608c4.106 16.942 9.119 32.235 14.822 45.216-11.116 1.939-22.043 4.194-32.781 6.736 7.042-14.347 13.109-31.874 17.959-51.952zm-41.58-3.375c3.739 15.474 8.214 29.437 13.356 41.738-3.045 7.028-6.288 13.307-9.687 18.713-4.415 1.228-8.789 2.514-13.13 3.848-2.052-5.726-3.991-11.795-5.801-18.161 5.95-13.314 11.066-28.755 15.262-46.138zm-33.638 35.155c6.874 29.034 16.129 53.125 27.15 70.523h-54.301c11.022-17.399 20.277-41.49 27.151-70.523zm-35.704.433c2.879 11.905 6.204 22.951 9.929 33.037-2.381 6.262-4.9 12.072-7.538 17.371-9.115 4.138-18.045 8.566-26.751 13.246 9.808-16.049 18.097-37.729 24.36-63.654zm-11.339 230.201c16.698-3.038 34.224-6.224 52.245-8.701v47.493h-18.813v-17.595c0-4.142-3.358-7.5-7.5-7.5s-7.5 3.358-7.5 7.5v17.595h-59.363v-31.871c12.715-1.791 26.382-4.274 40.931-6.921zm-55.932 8.718v30.074h-19.5v-29.127c.387.003.76.022 1.149.022 5.817 0 11.946-.357 18.351-.969zm-34.5-.115v30.189h-31.848v-44.833c7.753 7.804 18.325 12.649 31.848 14.644z" fill="#000000" data-original="#000000" class=""></path><path d="m220.774 240.042c-3.891-1.417-8.196.59-9.613 4.483l-2.686 7.38c-1.417 3.892.59 8.196 4.483 9.613.847.308 1.712.454 2.564.454 3.063 0 5.94-1.892 7.048-4.937l2.686-7.38c1.417-3.893-.589-8.196-4.482-9.613z" fill="#000000" data-original="#000000" class=""></path><path d="m190.715 240.024c-3.902 1.389-5.939 5.679-4.55 9.581l2.627 7.38c1.093 3.071 3.982 4.986 7.065 4.986.835 0 1.684-.14 2.516-.437 3.902-1.389 5.939-5.679 4.55-9.581l-2.627-7.38c-1.389-3.901-5.679-5.94-9.581-4.549z" fill="#000000" data-original="#000000" class=""></path><path d="m113.002 285.677-2.686 7.38c-1.417 3.892.59 8.196 4.483 9.613.847.308 1.712.454 2.564.454 3.063 0 5.94-1.892 7.048-4.937l2.686-7.38c1.417-3.892-.59-8.196-4.483-9.613-3.89-1.415-8.195.591-9.612 4.483z" fill="#000000" data-original="#000000" class=""></path><path d="m102.138 285.727c-1.39-3.902-5.679-5.941-9.581-4.55-3.902 1.389-5.939 5.679-4.55 9.581l2.627 7.38c1.093 3.071 3.982 4.986 7.065 4.986.835 0 1.684-.14 2.516-.437 3.902-1.389 5.939-5.679 4.55-9.581z" fill="#000000" data-original="#000000" class=""></path><path d="m241.467 414.859c-3.433-2.197-8.135-5.207-16.617-5.207s-13.184 3.009-16.617 5.207c-2.768 1.771-4.439 2.841-8.531 2.841-4.094 0-5.765-1.069-8.534-2.841-3.434-2.197-8.136-5.207-16.618-5.207s-13.185 3.009-16.619 5.207c-2.769 1.772-4.44 2.841-8.534 2.841-4.092 0-5.762-1.069-8.53-2.841-3.434-2.197-8.136-5.207-16.617-5.207s-13.184 3.009-16.617 5.207c-2.768 1.771-4.439 2.841-8.532 2.841s-5.765-1.069-8.533-2.841c-3.434-2.198-8.136-5.207-16.619-5.207s-13.185 3.009-16.619 5.207c-2.769 1.771-4.44 2.841-8.533 2.841-4.142 0-7.5 3.358-7.5 7.5s3.358 7.5 7.5 7.5c8.482 0 13.185-3.009 16.618-5.207 2.769-1.772 4.44-2.841 8.534-2.841s5.765 1.069 8.534 2.841c3.434 2.197 8.136 5.207 16.618 5.207s13.184-3.009 16.618-5.207c2.768-1.771 4.439-2.841 8.531-2.841s5.763 1.069 8.531 2.841c3.433 2.197 8.135 5.207 16.616 5.207 8.482 0 13.185-3.009 16.619-5.207 2.769-1.772 4.44-2.841 8.534-2.841 4.093 0 5.765 1.069 8.533 2.841 3.434 2.198 8.136 5.207 16.619 5.207 8.482 0 13.184-3.009 16.617-5.207 2.768-1.771 4.439-2.841 8.531-2.841s5.763 1.069 8.531 2.841c3.433 2.197 8.135 5.207 16.617 5.207 4.142 0 7.5-3.358 7.5-7.5s-3.358-7.5-7.5-7.5c-4.092 0-5.763-1.069-8.531-2.841z" fill="#000000" data-original="#000000" class=""></path><path d="m478.305 422.475c-5.266 0-7.499-1.429-10.878-3.592-4.147-2.655-9.309-5.958-18.964-5.958-9.656 0-14.818 3.304-18.965 5.958-3.38 2.163-5.613 3.592-10.879 3.592-5.268 0-7.501-1.429-10.882-3.593-4.148-2.654-9.31-5.958-18.966-5.958-9.657 0-14.819 3.304-18.967 5.958-3.381 2.164-5.614 3.593-10.882 3.593-4.142 0-7.5 3.358-7.5 7.5s3.358 7.5 7.5 7.5c9.657 0 14.819-3.304 18.967-5.958 3.381-2.164 5.614-3.593 10.882-3.593s7.5 1.429 10.881 3.592c4.148 2.655 9.311 5.958 18.967 5.958s14.817-3.304 18.965-5.958c3.38-2.163 5.613-3.592 10.879-3.592s7.498 1.429 10.877 3.592c4.147 2.655 9.309 5.958 18.965 5.958 4.142 0 7.5-3.358 7.5-7.5s-3.358-7.499-7.5-7.499z" fill="#000000" data-original="#000000" class=""></path></g></g></svg>