<svg xmlns="http://www.w3.org/2000/svg" version="1.1" xmlns:xlink="http://www.w3.org/1999/xlink" xmlns:svgjs="http://svgjs.com/svgjs" width="512" height="512" x="0" y="0" viewBox="0 0 512 512" style="enable-background:new 0 0 512 512" xml:space="preserve" class=""><g><g xmlns="http://www.w3.org/2000/svg"><g><path d="m334.341 157.073c-5.347-5.347-13.24-6.76-20.111-3.597-6.869 3.162-10.93 10.077-10.345 17.617l.67 8.642c.271 3.487-.993 6.906-3.466 9.38l-6.347 6.347c-2.929 2.93-2.929 7.678 0 10.607 2.929 2.928 7.678 2.928 10.606 0l6.347-6.347c5.577-5.577 8.425-13.285 7.815-21.147l-.67-8.642c-.135-1.735.984-2.519 1.663-2.831.679-.314 2.001-.653 3.232.578l29.38 29.38c1.23 1.23.89 2.553.578 3.23-.312.68-1.108 1.801-2.832 1.663l-8.642-.67c-7.862-.617-15.57 2.239-21.147 7.814l-14.431 14.432c-2.852-1.315-5.838-2.409-8.941-3.254l-66.195-18.034c-7.016-1.911-11.916-8.325-11.916-15.597v-13.787c20.973-12.163 35.12-34.847 35.12-60.788v-41.833c0-17.487-6.467-34.245-18.211-47.187-2.784-3.067-7.527-3.299-10.594-.514-3.067 2.783-3.297 7.526-.514 10.594 9.234 10.176 14.319 23.354 14.319 37.106v41.834c0 30.457-24.779 55.236-55.236 55.236h-19.687c-30.457 0-55.236-24.779-55.236-55.236v-41.833c0-30.457 24.779-55.236 55.236-55.236h19.687c6.039 0 11.971.967 17.633 2.873 3.926 1.318 8.18-.789 9.501-4.716 1.322-3.926-.79-8.179-4.715-9.501-7.208-2.426-14.751-3.656-22.42-3.656h-19.687c-38.728 0-70.236 31.508-70.236 70.236v41.834c0 25.941 14.147 48.625 35.12 60.788v13.787c0 7.271-4.9 13.686-11.916 15.597l-66.195 18.034c-24.987 6.807-42.438 29.647-42.438 55.546v32.035c0 16.097 13.096 29.192 29.192 29.192h38.526l9.796 26.81c7.51 20.554 6.657 42.843-2.403 62.762l-4.212 9.261h-18.77c-15.164 0-27.5 12.337-27.5 27.5v21.118c0 15.163 12.336 27.5 27.5 27.5h226.76c15.164 0 27.5-12.337 27.5-27.5v-21.118c0-15.163-12.336-27.5-27.5-27.5h-18.77l-4.212-9.261c-9.06-19.919-9.913-42.209-2.43-62.69l25.238-66.957c1.461-3.876-.497-8.202-4.373-9.663-3.878-1.465-8.203.496-9.664 4.372l-25.265 67.028c-8.869 24.273-7.861 50.597 2.838 74.121l1.387 3.05h-100.724c-4.142 0-7.5 3.357-7.5 7.5s3.358 7.5 7.5 7.5h135.975c6.893 0 12.5 5.607 12.5 12.5v21.118c0 6.893-5.607 12.5-12.5 12.5h-226.761c-6.893 0-12.5-5.607-12.5-12.5v-21.118c0-6.893 5.607-12.5 12.5-12.5h61.055c4.142 0 7.5-3.357 7.5-7.5s-3.358-7.5-7.5-7.5h-25.805l1.387-3.05c10.699-23.524 11.707-49.848 2.838-74.121l-11.596-31.735c-.006-.017-.016-.032-.023-.05-.01-.028-.017-.057-.028-.085l-13.643-35.222c-1.496-3.862-5.839-5.781-9.703-4.285-3.862 1.496-5.781 5.841-4.285 9.703l9.688 25.013h-32.821c-7.826 0-14.192-6.366-14.192-14.192v-32.035c0-19.15 12.904-36.04 31.381-41.073l66.195-18.034c13.526-3.685 22.974-16.05 22.974-30.069v-7.289c6.377 1.91 13.126 2.95 20.116 2.95h19.687c6.99 0 13.74-1.04 20.117-2.95v7.289c0 14.02 9.447 26.385 22.973 30.069l66.195 18.034c18.477 5.033 31.381 21.923 31.381 41.073v32.035c0 7.826-6.367 14.192-14.193 14.192h-13.186c-4.142 0-7.5 3.357-7.5 7.5s3.358 7.5 7.5 7.5h13.185c16.097 0 29.193-13.096 29.193-29.192v-32.035c0-17.357-7.846-33.333-20.539-44.037l12.079-12.08c2.474-2.474 5.892-3.74 9.382-3.467l8.641.67c7.542.576 14.455-3.477 17.617-10.346 3.162-6.87 1.75-14.764-3.598-20.11z" fill="#000000" data-original="#000000" class=""></path><path d="m217.751 346.643h13.958c4.142 0 7.5-3.357 7.5-7.5s-3.358-7.5-7.5-7.5h-13.958c-9.41 0-17.708-5.661-21.142-14.423-1.511-3.855-5.864-5.759-9.72-4.245-3.856 1.511-5.757 5.862-4.246 9.72 5.702 14.547 19.483 23.948 35.108 23.948z" fill="#000000" data-original="#000000" class=""></path><path d="m110.048 339.143c0 4.143 3.358 7.5 7.5 7.5h13.958c15.626 0 29.406-9.4 35.108-23.949 1.511-3.856-.39-8.208-4.246-9.72-3.857-1.51-8.208.389-9.72 4.247-3.434 8.761-11.732 14.422-21.142 14.422h-13.958c-4.142 0-7.5 3.357-7.5 7.5z" fill="#000000" data-original="#000000" class=""></path><path d="m153.214 249.767c1.652 0 3.226.793 4.21 2.121l.941 1.271c3.857 5.207 9.785 8.192 16.264 8.192s12.406-2.986 16.262-8.191l.942-1.272c.983-1.327 2.557-2.12 4.209-2.12h23.457c4.142 0 7.5-3.357 7.5-7.5s-3.358-7.5-7.5-7.5h-23.457c-6.384 0-12.463 3.062-16.263 8.191l-.942 1.272c-.998 1.348-2.532 2.12-4.209 2.12s-3.211-.772-4.21-2.121l-.941-1.271c-3.8-5.13-9.879-8.192-16.263-8.192h-23.457c-4.142 0-7.5 3.357-7.5 7.5s3.358 7.5 7.5 7.5z" fill="#000000" data-original="#000000" class=""></path><path d="m153.859 64.62h-16.55c-4.142 0-7.5 3.357-7.5 7.5s3.358 7.5 7.5 7.5h16.55c1.836 0 3.33 1.494 3.33 3.33v18.6c0 9.611 7.819 17.431 17.43 17.431h7.05c4.142 0 7.5-3.357 7.5-7.5s-3.358-7.5-7.5-7.5h-7.05c-1.34 0-2.43-1.091-2.43-2.431v-18.6c0-10.107-8.223-18.33-18.33-18.33z" fill="#000000" data-original="#000000" class=""></path><path d="m193.069 64.62c-4.142 0-7.5 3.357-7.5 7.5s3.358 7.5 7.5 7.5h18.88c4.142 0 7.5-3.357 7.5-7.5s-3.358-7.5-7.5-7.5z" fill="#000000" data-original="#000000" class=""></path><path d="m164.189 146.94h20.88c4.142 0 7.5-3.357 7.5-7.5s-3.358-7.5-7.5-7.5h-20.88c-4.142 0-7.5 3.357-7.5 7.5s3.358 7.5 7.5 7.5z" fill="#000000" data-original="#000000" class=""></path><path d="m172.428 408.42h4.4c4.142 0 7.5-3.357 7.5-7.5s-3.358-7.5-7.5-7.5h-4.4c-4.142 0-7.5 3.357-7.5 7.5s3.358 7.5 7.5 7.5z" fill="#000000" data-original="#000000" class=""></path><path d="m497.257 171.2-49.333-49.333 11.521-11.521c8.303-8.304 8.303-21.814 0-30.119l-18.85-18.85c-8.304-8.303-21.815-8.303-30.118 0l-11.521 11.521-5.232-5.232c-3.626-3.627-8.448-5.624-13.577-5.624-5.128 0-9.95 1.997-13.576 5.623l-9.91 9.91c-3.626 3.626-5.623 8.447-5.623 13.576s1.997 9.95 5.624 13.576l5.233 5.233-11.521 11.521c-8.303 8.304-8.303 21.814 0 30.118l18.85 18.85c4.152 4.151 9.605 6.228 15.059 6.227 5.454 0 10.907-2.075 15.059-6.227l11.521-11.521 49.334 49.334c3.743 3.742 8.66 5.614 13.576 5.614 4.917 0 9.833-1.872 13.577-5.614l9.909-9.909c3.626-3.627 5.624-8.448 5.624-13.577s-2-9.949-5.626-13.576zm-129.991-77.079c-.793-.793-1.23-1.847-1.23-2.969s.437-2.177 1.23-2.97l9.91-9.91c.793-.793 1.848-1.229 2.969-1.229s2.176.437 2.97 1.23l5.233 5.233-15.848 15.849zm21.467 65.722c-2.456 2.455-6.45 2.455-8.905 0l-18.85-18.85c-2.455-2.454-2.455-6.449 0-8.903l60.104-60.104c1.228-1.228 2.84-1.842 4.452-1.842 1.613 0 3.225.614 4.453 1.842l18.849 18.849c2.455 2.456 2.456 6.451 0 8.905zm97.917 27.904-9.909 9.909c-.793.794-1.848 1.23-2.97 1.23s-2.176-.437-2.97-1.23l-49.334-49.334 15.849-15.849 49.334 49.334c1.638 1.638 1.638 4.302 0 5.94z" fill="#000000" data-original="#000000" class=""></path></g></g></g></svg>