<svg height="255" width="255" xmlns="http://www.w3.org/2000/svg"><path d="m152.02 250.98c-.47 0-.95-.08-1.42-.24a4.237 4.237 0 0 1 -2.58-5.42c.4-1.13.82-2.29 1.24-3.46 5.48-15.15 12.29-34 3.53-60.78-11.32-34.62-12.78-39.07-16.31-74.17-2.04-20.26-17.43-49.63-37.09-61.05a4.238 4.238 0 0 1 -1.54-5.8 4.238 4.238 0 0 1 5.8-1.54c22.62 13.13 39.03 45.28 41.27 67.54 3.44 34.18 4.87 38.53 15.94 72.38 9.67 29.55 1.99 50.79-3.62 66.3-.42 1.16-.83 2.3-1.23 3.41-.6 1.75-2.24 2.83-3.99 2.83z"/><path d="m114.31 159.34c-3.12 0-5.97-.01-6.68-.06-2.75-.19-5.26-1.44-7.06-3.52-1.81-2.08-2.7-4.74-2.5-7.49.13-1.89.78-3.71 1.87-5.25l.09-.12 1.07-1.4c.25-.32.39-.68.42-1.02.06-.84-.4-1.59-1.06-1.76l-.7-.18c-5.61-1.19-9.26-5.66-8.9-10.91.22-3.19 1.87-6.04 4.52-7.83l.18-.12 1.53-.92c.6-.35.94-.89.98-1.5.07-1-.69-1.88-1.69-1.95-.12-.01-.46.04-.7.07l-1.68.29c-1.25.22-2.8.49-4.53.36-7.6-.53-13.99-6.65-15.18-14.55l-.38-2.52c-.46-3.22-3.4-6.57-7.08-6.57h-.11l-.42.01h-.33c-.86 0-1.68 0-2.27-.04a4.244 4.244 0 0 1 -3.94-4.53c.16-2.34 2.18-4.1 4.53-3.94.32.02 1.25.02 1.65.02l.57-.01c7.76-.17 14.67 5.93 15.8 13.83l.38 2.48c.51 3.39 3.41 7.07 7.38 7.35.7.05 1.57-.1 2.49-.26.26-.04.51-.09.77-.13l.97-.17c.05-.01.09-.02.14-.02.6-.08 1.52-.21 2.54-.14 2.75.19 5.26 1.44 7.06 3.52 1.81 2.08 2.7 4.74 2.5 7.49-.24 3.42-2.15 6.49-5.13 8.21l-1.34.81c-.43.32-.7.81-.74 1.34-.09 1.22 1.37 1.85 2.24 2.02.07.02.15.03.22.05l.77.2c4.63 1.17 7.76 5.62 7.42 10.58-.14 2.02-.88 3.95-2.15 5.59l-1 1.31c-.18.26-.28.56-.3.88-.05.66.26 1.11.44 1.33s.59.58 1.25.62c.99.06 9.23.05 14.77.02h.02c2.33 0 4.23 1.89 4.24 4.22a4.257 4.257 0 0 1 -4.22 4.27c-1.68.03-5.36.04-8.72.04z"/><path d="m130.53 223.04c-1.17 0-2.33-.48-3.17-1.42l-38.51-43.27h-9.98c-14.45 0-16.01-8.94-16.01-12.78v-3.59c0-.67-.24-1.29-.72-1.92-.04-.05-.08-.11-.12-.16l-.1-.14c-1.7-2.32-2.53-4.63-2.53-7.07 0-1.85.46-3.66 1.31-5.26-1.24-3.51-1.98-5.91-2.4-7.6l-3.6-1.36c-5.16-1.83-7.78-4.85-7.78-8.98v-.12c0-.56-.01-1.41.31-2.4l15.77-50.62c8.19-26.38 34.94-44.11 66.57-44.11 20.8 0 38.27 7.14 50.52 20.64 13.75 15.16 20.72 37.69 20.72 66.98 0 40.05 15.35 62.34 28.23 73.97a4.239 4.239 0 0 1 .3 5.99 4.23 4.23 0 0 1 -5.99.3c-14.16-12.79-31.03-37.1-31.03-80.27 0-27.11-6.23-47.73-18.52-61.27-10.6-11.68-25.89-17.86-44.23-17.86-27.89 0-51.38 15.33-58.46 38.15l-15.7 50.39v.15c.16.15.68.54 2.15 1.06l.09.03 5.97 2.26c1.06.4 1.91 1.2 2.37 2.23.28.63 2.1 7.97 3.41 11.58.54 1.48.21 3.13-.84 4.3-.32.35-.7.95-.7 1.81 0 .36.09.97.9 2.06.02.02.04.05.05.07l.07.1c1.6 2.09 2.45 4.53 2.45 7.05v3.59c0 1.5 0 4.3 7.52 4.3h11.89c1.21 0 2.36.52 3.17 1.42l39.78 44.69a4.241 4.241 0 0 1 -.35 5.99c-.8.74-1.81 1.09-2.81 1.09zm-75.2-93.55-.01.03c0-.01.01-.02.01-.03z" fill-rule="evenodd"/><path d="m63.76 235.28c-1.78 0-3.44-1.13-4.03-2.92-.73-2.22.47-4.62 2.69-5.35.27-.09 26.79-9.28 37.51-39.34a4.24 4.24 0 0 1 5.42-2.57c2.21.79 3.36 3.21 2.57 5.42-12.16 34.1-41.6 44.14-42.84 44.55-.44.14-.88.21-1.32.21zm131.58-2.76c-2.17 0-4.02-1.66-4.22-3.87-1.46-16.28-7.28-34.45-13.44-53.69-12.42-38.75-26.49-82.67-6.97-122.75a4.247 4.247 0 0 1 5.67-1.96 4.247 4.247 0 0 1 1.96 5.67c-18.03 37.02-5.09 77.39 7.42 116.44 6.31 19.7 12.28 38.31 13.81 55.52.21 2.33-1.51 4.4-3.85 4.6-.13.04-.26.04-.38.04zm-66.12-156.7c-.64 0-1.29-.15-1.9-.45a4.251 4.251 0 0 1 -1.89-5.7c2.37-4.72 10.22-13.15 22.98-11.26a4.245 4.245 0 1 1 -1.24 8.4c-9.94-1.48-14.11 6.58-14.15 6.67a4.255 4.255 0 0 1 -3.8 2.34zm-63.22 34.2c-1.63 0-3.19-.95-3.89-2.54-.94-2.15.03-4.65 2.18-5.59 2.47-1.09 10.29-3.4 16.74-1.1a4.24 4.24 0 0 1 2.57 5.42 4.24 4.24 0 0 1 -5.42 2.57c-3.31-1.18-8.45-.01-10.47.88-.56.24-1.14.36-1.71.36zm2 14.29a4.244 4.244 0 0 1 .36-8.48l7.21.27h.04a4.244 4.244 0 0 1 -.36 8.48l-7.21-.27z"/><path d="m122.15 252.89c-.73 0-1.48-.19-2.16-.59a4.235 4.235 0 0 1 -1.48-5.8c6.6-11.11 10.98-38.28 10.98-51.37 0-11.98-2.16-22.11-6.6-30.97l-1.08-2.16c-6.2-11.44-9.47-24.4-9.47-37.49v-.6c0-25.59-13.93-49.19-36.35-61.58a4.227 4.227 0 0 1 -1.66-5.75 4.23 4.23 0 0 1 5.75-1.66c25.12 13.88 40.72 40.32 40.72 68.99v.6c0 11.71 2.93 23.29 8.48 33.51.02.04.05.09.07.13l1.11 2.22c5.04 10.06 7.49 21.43 7.49 34.75 0 14.7-4.63 43-12.17 55.69a4.192 4.192 0 0 1 -3.63 2.08z"/><path d="m127.78 254.11c-69.7 0-126.41-56.71-126.41-126.41-0-69.7 56.71-126.4 126.41-126.4s126.41 56.71 126.41 126.41-56.71 126.4-126.41 126.4zm0-244.33c-64.98-0-117.85 52.9-117.85 117.92s52.87 117.92 117.85 117.92 117.85-52.9 117.85-117.92-52.87-117.92-117.85-117.92z" fill-rule="evenodd"/><path d="m51.11 185.61 3.74-2.57 8.07 9.24-.11.1c-.73-.35-1.26-.5-1.58-.46s-.81.34-1.47.91l-7.68 6.71c-.65.57-1.02 1.01-1.11 1.32-.08.31 0 .86.24 1.63l-.11.1-7.56-8.66 3.11-3.24.11.12c-.55.92-.85 1.92-.91 3s.29 2.05 1.06 2.92l1.16 1.33 4.75-4.14-1.18-1.36c-.81-.93-1.87-1.28-3.2-1.05l-.07-.08 3.23-2.82.07.08c-.23.58-.32 1.19-.25 1.81s.29 1.17.7 1.62l1.22 1.33 4.73-4.13c.23-.2.29-.52.16-.95-.12-.43-.41-.91-.87-1.43l-.44-.51c-.58-.67-1.41-1.04-2.47-1.12-1.06-.07-2.13.05-3.22.38zm-.15-8.89c.84 1.28 1.42 2.95 1.73 5.02l-3.7 2.76-.08-.12c.51-.81.93-1.61 1.27-2.42s.55-1.68.63-2.6-.08-1.69-.48-2.3c-.35-.54-.83-.88-1.42-1.02s-1.2-.01-1.82.39c-.66.43-1.05.98-1.17 1.65-.13.67-.15 1.76-.09 3.27.06 1.55.04 2.62-.06 3.24-.23 1.31-.88 2.32-1.94 3.02-1.12.73-2.27.92-3.43.56-1.17-.35-2.13-1.13-2.91-2.31-.67-1.03-1.22-2.36-1.64-4l3.51-2.82.09.13c-.73 1.21-1.26 2.41-1.56 3.6-.31 1.2-.23 2.16.25 2.89.3.47.72.77 1.26.91.54.13 1.09.02 1.66-.36.55-.36.87-.84.99-1.45.11-.61.12-1.67.04-3.16-.04-.63-.07-1.04-.07-1.25 0-.2-.01-.56 0-1.06s.03-.86.07-1.07.11-.5.2-.89.22-.68.38-.9.36-.47.61-.73.54-.51.87-.72c.69-.45 1.38-.72 2.08-.81s1.33-.01 1.91.21c.57.23 1.09.54 1.57.93s.88.86 1.23 1.39zm-19.44-12.27.06.13c-.8.74-1.37 1.62-1.73 2.63-.35 1.02-.28 2.05.21 3.1l.1.22 11.11-5.21c.79-.37 1.26-.7 1.42-.97.17-.28.24-.82.22-1.63l.14-.06 3.01 6.42-.14.06c-.61-.53-1.07-.82-1.39-.88-.32-.05-.88.1-1.66.47l-11.11 5.21.14.3c.49 1.05 1.24 1.75 2.24 2.12s2.04.5 3.14.38l.06.14-4.21 1.54-5.48-11.7zm10.18-5.97c.17.45.15.91-.06 1.36s-.54.75-.97.91c-.45.17-.91.14-1.36-.07s-.76-.54-.92-1c-.16-.44-.14-.88.07-1.34.21-.45.54-.76 1-.92.44-.16.88-.14 1.33.07.44.21.74.54.91.98zm-6.77-13.46c-.16-.76-.4-1.31-.7-1.64s-.82-.68-1.56-1.05l.04-.14 4.53.41 1.92 9.04-.51.11c-2.78-1.78-5.06-3.01-6.83-3.7-1.78-.68-3.27-.9-4.49-.65-.91.19-1.58.58-1.98 1.14s-.53 1.2-.39 1.89c.25 1.17 1.12 2.17 2.61 3.01l-.09.38c-2.81-1.01-4.43-2.49-4.84-4.42-.22-1.05-.07-2.03.47-2.96s1.4-1.51 2.58-1.77c.59-.12 1.21-.14 1.88-.03s1.27.27 1.82.48 1.24.58 2.08 1.12c.84.53 1.51.98 2.03 1.35s1.29.94 2.33 1.72l-.93-4.31z"/><path d="m34.83 139.16c-1.32 1.3-3.21 2.05-5.66 2.25s-4.44-.23-5.98-1.3-2.38-2.39-2.5-3.96.49-3.01 1.84-4.31c1.36-1.3 3.26-2.05 5.73-2.25 2.45-.2 4.42.23 5.91 1.29s2.33 2.38 2.45 3.94c.13 1.59-.46 3.04-1.79 4.34zm1.18-4.25c-.06-.79-.75-1.36-2.04-1.69-1.3-.34-3.12-.41-5.47-.22-2.48.2-4.31.59-5.5 1.16s-1.75 1.23-1.69 1.98.72 1.3 1.97 1.66 3.11.43 5.58.23c2.51-.21 4.34-.59 5.5-1.16s1.71-1.22 1.64-1.98z" fill-rule="evenodd"/><path d="m35.83 127.65c-.3-.75-.59-1.22-.85-1.41s-.83-.3-1.7-.33l-8.93-.25c-.55-.02-.96.11-1.22.37s-.58.8-.94 1.6h-.13l-1.74-5.38 13.06.37c.87.02 1.44-.06 1.71-.23s.59-.64.93-1.38h.15l-.19 6.63z"/><path d="m37.15 115.19c-.2 1.48-.74 2.68-1.62 3.6s-1.94 1.3-3.17 1.13c-.95-.13-1.72-.55-2.33-1.25-.61-.71-.99-1.58-1.13-2.63-1.25 1.72-2.69 2.47-4.32 2.25-1.22-.17-2.11-.76-2.69-1.79s-.77-2.22-.59-3.58c.18-1.32.65-2.38 1.4-3.18.76-.81 1.6-1.15 2.53-1.02.8.11 1.44.53 1.93 1.27s.8 1.5.94 2.3c.28-.37.49-.66.63-.84s.4-.47.77-.85.73-.67 1.04-.85c.32-.18.73-.35 1.23-.47.5-.13 1.03-.15 1.57-.08 1.38.19 2.4.85 3.07 2s.9 2.48.69 4zm-9.29-2.54c-.72-1.03-1.67-1.62-2.87-1.78-.82-.11-1.51.03-2.06.44-.55.4-.87.95-.97 1.65-.09.65.04 1.2.41 1.64.36.45.89.73 1.58.82.72.1 1.37-.07 1.94-.52s1.23-1.2 1.98-2.26zm8.67 2.47c.11-.79-.05-1.46-.46-2s-1.01-.87-1.77-.97c-.83-.11-1.63.12-2.38.68-.76.57-1.64 1.52-2.65 2.86.7 1.1 1.77 1.75 3.23 1.96 1.14.15 2.05 0 2.77-.48.71-.48 1.13-1.17 1.25-2.07z" fill-rule="evenodd"/><path d="m209.27 77.64c-.78.55-1.25.99-1.41 1.33s-.19.88-.09 1.63l-.15.11-4.14-5.88.15-.1c.67.35 1.2.52 1.58.49s.96-.31 1.74-.86c.01-.01.76-.54 2.25-1.57s2.24-1.56 2.25-1.57c.68-.48 1.08-.99 1.21-1.55.13-.55.03-1.06-.3-1.53-.54-.77-1.49-1.14-2.82-1.1l-5.18 3.64c-.79.55-1.25.99-1.41 1.33-.16.33-.2.87-.11 1.6l-.15.1-4.12-5.86.15-.1c.67.35 1.19.51 1.56.47s.94-.33 1.72-.88l9.8-6.89c.69-.48 1.18-.91 1.47-1.26s.45-.64.49-.85c.04-.22.04-.62.03-1.19l.15-.1c1.26 1.54 2.61 2.88 4.07 4.03l-7.72 5.43c2.22-.06 3.87.65 4.92 2.15.25.36.45.75.58 1.16s.21.86.23 1.36-.13 1.01-.42 1.53c-.3.52-.75 1-1.38 1.44l-4.97 3.49z"/><path d="m216.97 89.48c-.5.13-1.01.21-1.52.24-.51.02-1.11-.01-1.78-.12-.68-.11-1.33-.42-1.96-.93s-1.16-1.2-1.6-2.07c-.84-1.69-1-3.37-.48-5.03s1.69-2.94 3.5-3.85c1.78-.89 3.5-1.07 5.16-.53 1.66.53 2.92 1.67 3.78 3.41.45.9.69 1.78.71 2.64s-.12 1.58-.43 2.18-.65 1.11-1.03 1.5-.78.69-1.19.9l-.29.15-3.79-7.59-.33.16c-1.5.75-2.42 1.73-2.74 2.92s-.2 2.36.37 3.49c.76 1.55 1.96 2.32 3.59 2.33zm4.32-8.97c-.31-.61-.87-.96-1.68-1.02s-1.79.16-2.94.63l2.16 4.22c.34-.19.67-.39.99-.63.32-.23.64-.52.96-.87s.53-.73.63-1.14.06-.81-.13-1.19zm-5.09 22c-.29-.9-.23-1.61.2-2.15.42-.53 1-.9 1.71-1.09l-.01-.02c-.82-.14-1.62-.5-2.41-1.11-.78-.6-1.33-1.42-1.67-2.44-.33-1.02-.33-1.93.01-2.73.34-.79.94-1.33 1.79-1.61 1.24-.41 2.51-.07 3.8.99s2.68 2.76 4.16 5.08l2.01-.6c.48-.15.88-.4 1.17-.75s.36-.78.19-1.29c-.25-.75-.85-1.22-1.81-1.4s-2.01-.16-3.17.04l-.07-.11.74-3.2c1 .18 1.98.66 2.92 1.47.95.81 1.66 1.96 2.15 3.45.31.95.44 1.79.39 2.53-.04.74-.24 1.33-.6 1.79-.35.46-.74.82-1.17 1.08s-.91.47-1.44.64l-6.02 1.84c-.55.18-.76.47-.61.87.15.46.6.72 1.36.78l-.03.24c-.76 0-1.48-.18-2.13-.57-.66-.38-1.12-.98-1.4-1.8zm.63-5.36c.26.8.92 1.4 1.98 1.81l4.41-1.34c-1.62-2.29-3.28-3.16-4.98-2.61-.6.2-1.03.49-1.27.88s-.28.81-.13 1.27z" fill-rule="evenodd"/><path d="m217.49 105.23c.46.6.87.96 1.22 1.08s.99.1 1.93-.08l5.52-1.01c1.01-.18 1.69-.4 2.05-.66s.67-.75.92-1.47l.18-.03c.43 1.79 1.1 3.55 1.99 5.27l-2.62.43.01.05c.69.11 1.35.42 2 .94.65.51 1.06 1.24 1.23 2.17.08.43.05.86-.07 1.27l-4.28.25-.03-.18c1.22-1.36 1.77-2.4 1.62-3.15-.1-.53-.49-.9-1.18-1.07l-6.57 1.2c-.94.17-1.55.4-1.82.69-.28.29-.51.9-.69 1.82l-.18.03-1.38-7.54zm1.87 15.55c-.08-1.01.17-1.87.73-2.59.57-.72 1.46-1.12 2.66-1.22l8.54-.66-.1-1.24.41-.03c1.71 2.44 3.19 3.99 4.43 4.63l.02.28-3.65.28.25 3.25-.82-.07-.24-3.07-7.92.53c-.88.06-1.48.27-1.83.66s-.49.84-.45 1.34c.05.62.39 1.19 1.01 1.71l-.13.14c-1.82-.91-2.8-2.24-2.93-3.98v.04z"/><path d="m222.5 138.71c-.96-.05-1.59.01-1.93.17-.33.16-.69.57-1.07 1.23l-.18-.01.38-7.17.18.01c.32.69.63 1.15.94 1.36s.94.35 1.9.4c.01 0 .93.05 2.74.16s2.73.15 2.74.16c.83.04 1.46-.12 1.9-.47.45-.35.68-.82.71-1.39.05-.95-.46-1.81-1.54-2.61l-6.32-.33c-.96-.05-1.59.01-1.93.17-.33.16-.69.56-1.07 1.19l-.18-.01.37-7.15.18.01c.31.69.63 1.13.94 1.33s.94.32 1.9.37l11.95.62c.84.04 1.49.01 1.94-.08.44-.09.75-.22.91-.37s.41-.46.76-.92l.18.01c.04 1.99.28 3.88.71 5.68l-9.42-.49c1.78 1.33 2.63 2.9 2.54 4.72-.02.44-.11.86-.26 1.27s-.37.81-.66 1.21-.72.71-1.28.94-1.21.33-1.97.29l-6.06-.32z"/></svg>